<svg width="67" height="81" viewBox="0 0 67 81" fill="none" xmlns="http://www.w3.org/2000/svg">
    <path d="M12.9468 19.0369C10.2777 31.1438 3.10805 63.8375 3.10805 63.8375C2.29234 68.8748 5.67601 73.4921 10.4794 74.3415L32.6532 78.0746C37.5968 78.9195 42.1172 75.4825 42.9377 70.5882L48.5706 15.8276" fill="#FECD14"/>
    <path d="M58.0352 17.8474C58.3848 15.6886 56.9153 13.7308 54.9368 13.3642C54.3709 13.2391 53.95 13.2524 53.3936 13.4133C52.9847 9.56045 50.0646 6.21701 46.1126 5.62686C43.9939 5.26473 41.9037 5.76079 40.1131 6.82004C38.1062 5.59526 35.833 4.80851 33.2886 4.31675C29.1915 3.58803 25.4178 4.13766 22.3788 5.66617C21.2232 4.70068 19.7964 4.03017 18.1034 3.79768C13.1597 2.95272 8.49901 6.3942 7.6833 11.4315C7.58104 12.5802 7.47877 13.7289 7.79263 14.7212C6.70354 15.7581 5.90454 17.0722 5.67624 18.6544C5.21012 21.5329 6.5631 24.2103 8.99567 25.5647C7.88756 26.0295 7.07906 27.0575 6.846 28.4967C6.49641 30.6556 7.96592 32.6134 9.94432 32.9799C11.6374 33.2124 13.2924 32.3007 13.9464 30.8481C14.8024 31.2504 15.6584 31.6527 16.6453 31.7645C21.1633 32.4798 25.2913 29.9143 26.692 25.5743C27.6836 25.8291 28.6751 26.0839 29.6667 26.3388C34.6103 27.1837 39.2116 26.1782 42.3671 23.9301C43.0091 26.3437 45.035 28.1406 47.5746 28.4894C51.1058 29.0929 54.3968 26.6973 54.9795 23.0992C55.096 22.3796 55.0722 21.6644 54.9082 20.9538C56.5822 20.6141 57.6666 19.4342 58.0352 17.8474Z" fill="white"/>
    <path fill-rule="evenodd" clip-rule="evenodd" d="M37.6592 39.8649C39.1494 40.105 40.1645 41.5074 39.9264 42.9971L35.7409 69.1893C35.5028 70.679 34.1018 71.692 32.6116 71.4519C31.1214 71.2117 30.1063 69.8094 30.3444 68.3197L34.5299 42.1275C34.768 40.6378 36.169 39.6248 37.6592 39.8649Z" fill="black"/>
    <path fill-rule="evenodd" clip-rule="evenodd" d="M27.6323 38.1823C29.1225 38.4204 30.1374 39.8214 29.8993 41.3116L25.7137 67.5038C25.4756 68.9939 24.0746 70.0088 22.5845 69.7707C21.0944 69.5326 20.0794 68.1316 20.3175 66.6415L24.5031 40.4492C24.7412 38.9591 26.1422 37.9442 27.6323 38.1823Z" fill="black"/>
    <path fill-rule="evenodd" clip-rule="evenodd" d="M17.7513 36.6338C19.2412 36.8734 20.2547 38.2755 20.015 39.7654L15.8247 65.8145C15.5851 67.3044 14.183 68.3179 12.6931 68.0782C11.2033 67.8386 10.1898 66.4365 10.4294 64.9466L14.6197 38.8975C14.8594 37.4076 16.2614 36.3941 17.7513 36.6338Z" fill="black"/>
    <path fill-rule="evenodd" clip-rule="evenodd" d="M18.5158 1.09706C20.0612 1.31513 21.4554 1.81863 22.6802 2.54495C25.9748 1.26684 29.7819 0.918615 33.7635 1.62678L33.8036 1.63391C36.0553 2.06911 38.1902 2.73111 40.1709 3.73065C42.1061 2.90106 44.2905 2.55032 46.5409 2.9289C50.9361 3.59674 54.2886 6.78158 55.5873 10.7087C58.9305 11.4143 61.3131 14.7024 60.7325 18.2878C60.7227 18.3487 60.7108 18.4091 60.6968 18.4692C60.2901 20.2199 59.2841 21.7468 57.7692 22.7103C57.7524 22.9867 57.7216 23.2633 57.6768 23.5396C57.0026 27.7033 53.7094 30.7869 49.7305 31.2541L49.5572 32.9393L59.6253 34.9916L59.6847 35.0061C61.1307 35.3604 63.0839 36.2894 64.5945 38.0284C66.2065 39.8841 67.1785 42.5204 66.6377 45.8232C65.8554 50.6015 64.4646 57.9974 63.8689 61.0891C63.3568 63.7482 62.0965 66.0704 60.0483 67.6119C57.9818 69.1674 55.425 69.6916 52.8033 69.3078C50.0285 68.9015 47.5743 68.4305 45.9421 68.0837L45.6557 70.8678C45.6498 70.9254 45.642 70.9829 45.6324 71.04C44.5776 77.3326 38.7198 81.8815 32.1963 80.7685L32.1929 80.7679L10.0035 77.0322C3.73256 75.9232 -0.644096 69.9155 0.410863 63.4007C0.418921 63.351 0.428354 63.3015 0.439151 63.2522L6.7526 34.4833C4.84761 33.0627 3.73084 30.6365 4.14866 28.0563C4.28638 27.2058 4.56308 26.4092 4.96489 25.7001C3.30958 23.6861 2.53204 21.0148 2.9752 18.237C3.22641 16.5274 3.93582 15.0692 4.87825 13.87C4.80494 12.9063 4.88706 12.0049 4.9465 11.3525L4.96161 11.1854C4.9674 11.1204 4.97552 11.0555 4.98596 10.9911C6.03073 4.53924 12.0265 0.0130791 18.5158 1.09706ZM46.5844 61.8397C47.9949 62.154 50.633 62.6856 53.707 63.1356C54.9259 63.3141 55.7471 63.0419 56.2971 62.628C56.8654 62.2002 57.4604 61.3796 57.7436 59.9092C58.2351 57.3581 59.2615 51.9089 60.0359 47.4494C60.1979 46.5161 60.349 45.6262 60.4817 44.8153C60.7158 43.3858 60.3101 42.6083 59.8852 42.1193C59.3774 41.5346 58.6677 41.1913 58.245 41.0765L48.9158 39.1748L46.5844 61.8397ZM41.2275 27.7117C42.048 28.7976 43.1101 29.685 44.3348 30.3037L40.2294 70.215C39.6094 73.666 36.4506 75.9517 33.1135 75.3813L33.1068 75.3802L10.9552 71.651L10.9448 71.6491C7.63588 71.0582 5.26005 67.8716 5.79453 64.3427L12.115 35.542C13.1083 35.2895 14.0333 34.8119 14.8051 34.1488C15.2589 34.2902 15.7529 34.4077 16.2781 34.4718C21.2334 35.2334 25.8534 32.925 28.2402 28.7922L28.9901 28.9849C29.0627 29.0036 29.1361 29.0192 29.21 29.0319C33.5372 29.7715 37.7575 29.2701 41.2275 27.7117ZM10.3958 11.7822C10.2896 12.9995 10.2839 13.5406 10.3978 13.9006C10.7125 14.8957 10.4334 15.9823 9.67834 16.7011C8.94327 17.401 8.50553 18.1832 8.3807 19.0483L8.37358 19.0948C8.09289 20.8282 8.88835 22.3796 10.3224 23.1781C11.2366 23.6871 11.7809 24.6728 11.7241 25.7168C11.6673 26.7609 11.0196 27.6801 10.0557 28.0844C9.95439 28.1269 9.86394 28.1935 9.78269 28.3023C9.69951 28.4137 9.59617 28.6109 9.54334 28.9371C9.43787 29.5884 9.87189 30.1512 10.379 30.2804C10.8963 30.3218 11.3244 30.0125 11.4544 29.7236C11.7548 29.0565 12.3104 28.5382 12.9968 28.2848C13.6832 28.0314 14.4429 28.0641 15.1058 28.3756C16.0198 28.8052 16.4792 28.9964 16.9491 29.0496C16.9891 29.0541 17.0291 29.0596 17.0689 29.0659C20.245 29.5687 23.0995 27.8056 24.0915 24.7319C24.5346 23.3588 25.97 22.5687 27.3686 22.9282L30.2306 23.6636C34.5335 24.3733 38.3284 23.4504 40.7794 21.7042C41.5093 21.1842 42.4484 21.0557 43.2922 21.3605C44.136 21.6653 44.7771 22.3644 45.0077 23.2313C45.3631 24.5674 46.4838 25.5822 47.9426 25.7826C47.9723 25.7866 48.0018 25.7912 48.0313 25.7962C50.0211 26.1363 51.9345 24.8059 52.2821 22.6588C52.3421 22.2885 52.3302 21.9304 52.2458 21.5647C52.08 20.8467 52.2112 20.0926 52.6095 19.4734C53.0077 18.8543 53.6394 18.4225 54.3612 18.2761C54.8651 18.1738 55.1884 17.901 55.3484 17.3246C55.4087 16.6837 54.9529 16.1452 54.4426 16.0507C54.4117 16.0449 54.381 16.0387 54.3503 16.0319C54.2989 16.0205 54.268 16.0157 54.2525 16.0137C54.2371 16.0167 54.2065 16.0235 54.156 16.0381C53.3793 16.2627 52.5424 16.1315 51.8708 15.6798C51.1992 15.2281 50.7618 14.5023 50.6764 13.6979C50.388 10.9802 48.3317 8.72015 45.7127 8.32907L45.6559 8.31997C44.2625 8.08181 42.822 8.39409 41.5069 9.17202C40.6378 9.68618 39.5551 9.67834 38.692 9.15163C37.0354 8.14062 35.0957 7.44989 32.7939 7.00317C29.2227 6.37193 26.0631 6.87321 23.6094 8.10731C22.6366 8.59661 21.4652 8.46084 20.6285 7.76181C19.8596 7.11937 18.9098 6.66573 17.7354 6.50446C17.7057 6.50039 17.6762 6.49583 17.6467 6.49079C14.2938 5.91771 11.0198 8.22492 10.3958 11.7822Z" fill="black"/>
</svg>
