<svg width="16" height="20" viewBox="0 0 16 20" version="1.1" xmlns="http://www.w3.org/2000/svg" xmlns:xlink="http://www.w3.org/1999/xlink">
    <g style="stroke: transparent;" transform="translate(-2579 7304)">
        <use xlink:href="#path0_stroke" transform="translate(2589.77 -7295.74)"/>
        <use xlink:href="#path1_stroke" transform="translate(2580 -7296.83)"/>
        <use xlink:href="#path2_stroke" transform="translate(2587.15 -7293.52)"/>
        <use xlink:href="#path2_stroke" transform="translate(2584.79 -7294)"/>
        <use xlink:href="#path2_stroke" transform="translate(2582.43 -7294.48)"/>
        <use xlink:href="#path3_stroke" transform="translate(2580.99 -7302.97)"/>
    </g>
    <defs>
        <path id="path0_stroke" d="M 2.80192 0.449959L 2.66393 0.930542C 2.66869 0.931908 2.67347 0.933204 2.67827 0.934429L 2.80192 0.449959ZM 3.17971 0.54638L 3.40703 0.101043C 3.37403 0.0841974 3.33926 0.0710727 3.30336 0.06191L 3.17971 0.54638ZM 3.40009 0.610659L 3.23901 1.084C 3.29088 1.10165 3.3453 1.11066 3.40009 1.11066L 3.40009 0.610659ZM 3.49454 0.6428L 3.72186 0.197462C 3.65147 0.161533 3.57356 0.1428 3.49454 0.1428L 3.49454 0.6428ZM 3.5575 0.674939L 3.33018 1.12028C 3.40057 1.15621 3.47847 1.17494 3.5575 1.17494L 3.5575 0.674939ZM 3.58898 0.674939L 3.81629 0.229598C 3.7459 0.193671 3.668 0.174939 3.58898 0.174939L 3.58898 0.674939ZM 3.65195 0.70708L 3.42463 1.15242C 3.44601 1.16333 3.46815 1.17269 3.49087 1.18042L 3.65195 0.70708ZM 4.0927 0.932059L 4.39666 0.535064L 4.0927 0.932059ZM 4.40752 1.25346L 4.00457 1.54949L 4.40752 1.25346ZM 4.72234 2.12124L 5.22234 2.12124C 5.22234 2.10496 5.22155 2.08869 5.21996 2.07249L 4.72234 2.12124ZM 4.69086 2.47478L 4.24182 2.25485C 4.20829 2.32332 4.19086 2.39854 4.19086 2.47478L 4.69086 2.47478ZM 4.69086 2.5712L 5.16616 2.72639C 5.18252 2.67629 5.19086 2.62391 5.19086 2.5712L 4.69086 2.5712ZM 4.62789 2.82832L 4.15259 2.67312C 4.14627 2.69248 4.14114 2.71221 4.13722 2.73219L 4.62789 2.82832ZM 4.50197 3.34256L 4.98503 3.4716C 4.9893 3.45562 4.99277 3.43944 4.99543 3.42312L 4.50197 3.34256ZM 3.99825 5.39952L 4.47355 5.55471C 4.47638 5.54607 4.47896 5.53735 4.48131 5.52856L 3.99825 5.39952ZM 3.93529 5.65663L 3.45998 5.50144C 3.45608 5.51339 3.45263 5.52549 3.44964 5.5377L 3.93529 5.65663ZM 3.9038 5.7852L 3.41815 5.66626C 3.40862 5.70519 3.4038 5.74512 3.4038 5.7852L 3.9038 5.7852ZM 3.9038 5.9459L 4.35285 6.1658C 4.38637 6.09734 4.4038 6.02212 4.4038 5.9459L 3.9038 5.9459ZM 3.87232 6.01018L 3.42328 5.79027C 3.38975 5.85873 3.37232 5.93395 3.37232 6.01018L 3.87232 6.01018ZM 3.84084 6.07445L 3.48365 5.72457C 3.44629 5.76271 3.41528 5.80659 3.3918 5.85453L 3.84084 6.07445ZM 3.77787 6.26729L 4.22691 6.48722C 4.26044 6.41875 4.27787 6.34353 4.27787 6.26729L 3.77787 6.26729ZM 3.68343 6.42799L 4.11449 6.68134C 4.1209 6.67043 4.1269 6.65928 4.13246 6.64792L 3.68343 6.42799ZM 3.58898 6.58869L 3.99193 6.88472C 4.00202 6.87098 4.0114 6.85674 4.02004 6.84204L 3.58898 6.58869ZM 2.4871 7.32791L 2.37244 6.84124C 2.36393 6.84324 2.35548 6.84547 2.34709 6.84792L 2.4871 7.32791ZM 1.88894 7.36005L 1.97281 6.86714C 1.9451 6.86242 1.91704 6.86005 1.88894 6.86005L 1.88894 7.36005ZM 1.6056 7.32791L 1.37828 7.77325C 1.44867 7.80918 1.52657 7.82791 1.6056 7.82791L 1.6056 7.32791ZM 1.4167 7.26363L 1.64402 6.8183C 1.61102 6.80145 1.57625 6.78833 1.54035 6.77916L 1.4167 7.26363ZM 1.13336 2.45209e-07C 1.01527 0.485853 1.01526 0.48585 1.01525 0.485848C 1.01525 0.485848 1.01524 0.485846 1.01524 0.485846C 1.01524 0.485846 1.01525 0.485849 1.01527 0.485854C 1.01531 0.485863 1.01539 0.485883 1.01551 0.485912C 1.01575 0.485971 1.01615 0.486069 1.01671 0.486205C 1.01783 0.486478 1.01958 0.486907 1.02196 0.48749C 1.02672 0.488657 1.03398 0.490442 1.04366 0.492838C 1.06303 0.497629 1.09209 0.504861 1.13023 0.514472C 1.20651 0.533695 1.3191 0.562428 1.46308 0.600168C 1.75108 0.675658 2.16444 0.787124 2.66393 0.930542L 2.93991 -0.0306233C 2.43197 -0.176466 2.01105 -0.289979 1.71663 -0.367153C 1.5694 -0.405746 1.45374 -0.435267 1.37458 -0.455214C 1.335 -0.465188 1.30454 -0.47277 1.28382 -0.477897C 1.27345 -0.480461 1.26553 -0.482411 1.26011 -0.483739C 1.2574 -0.484404 1.25532 -0.484912 1.25387 -0.485265C 1.25315 -0.485441 1.25259 -0.485579 1.25218 -0.485677C 1.25198 -0.485726 1.25182 -0.485765 1.2517 -0.485794C 1.25164 -0.485809 1.25159 -0.485821 1.25155 -0.485831C 1.25153 -0.485836 1.25151 -0.485841 1.2515 -0.485844C 1.25148 -0.485849 1.25146 -0.485853 1.13336 2.45209e-07ZM 2.67827 0.934429C 2.67889 0.934586 2.68356 0.935779 2.68418 0.935936C 2.68594 0.936387 2.68388 0.935861 2.68565 0.936312C 2.68653 0.936536 2.68625 0.936465 2.68713 0.936689C 2.69035 0.937511 2.68538 0.936243 2.6886 0.937066C 2.69041 0.937526 2.68828 0.936982 2.69008 0.937442C 2.69178 0.937877 2.69428 0.938514 2.69598 0.938949C 2.71133 0.942867 2.68653 0.936537 2.70189 0.940455C 2.70593 0.941487 2.72146 0.94545 2.7255 0.946482C 2.74181 0.950646 2.7564 0.95437 2.77272 0.958534C 2.77519 0.959166 2.8647 0.982008 2.86717 0.98264C 2.92128 0.996451 2.9075 0.992934 2.96162 1.00674C 2.96985 1.00885 2.96519 1.00766 2.97342 1.00976C 2.9802 1.01149 2.97255 1.00953 2.97933 1.01126C 2.99774 1.01596 2.96386 1.00732 2.98228 1.01202C 2.98252 1.01208 2.98277 1.01214 2.98302 1.01221C 2.98326 1.01227 2.98351 1.01233 2.98375 1.01239C 2.98837 1.01357 2.98062 1.01159 2.98523 1.01277C 2.99036 1.01408 2.99191 1.01448 2.99704 1.01578C 3.00869 1.01876 2.99718 1.01582 3.00884 1.0188C 3.01421 1.02017 3.01528 1.02044 3.02065 1.02181C 3.02348 1.02253 3.02962 1.0241 3.03245 1.02482C 3.0526 1.02996 3.03592 1.02571 3.05606 1.03085L 3.30336 0.06191C 3.14834 0.0223457 3.08059 0.00505332 2.92557 -0.0345109L 2.67827 0.934429ZM 2.95239 0.991717C 3.04389 1.03842 3.12858 1.05731 3.16748 1.06613C 3.2125 1.07634 3.22228 1.07831 3.23901 1.084L 3.56116 0.137315C 3.48345 0.110868 3.41452 0.0967641 3.38871 0.0909095C 3.35678 0.0836642 3.3785 0.0864785 3.40703 0.101043L 2.95239 0.991717ZM 3.40009 1.11066C 3.32433 1.11066 3.26844 1.09163 3.24493 1.08263C 3.23211 1.07772 3.22301 1.07344 3.21967 1.07185C 3.21685 1.07049 3.21505 1.06954 3.21999 1.07207C 3.22292 1.07356 3.23259 1.07853 3.24328 1.08365C 3.25449 1.08901 3.27146 1.09681 3.29216 1.10473C 3.3314 1.11975 3.40304 1.1428 3.49454 1.1428L 3.49454 0.1428C 3.57029 0.1428 3.62619 0.161829 3.64969 0.170827C 3.66251 0.175736 3.67162 0.180019 3.67495 0.181613C 3.67778 0.182966 3.67957 0.183915 3.67463 0.181393C 3.6717 0.179897 3.66204 0.174931 3.65134 0.169812C 3.64014 0.16445 3.62316 0.156653 3.60247 0.148731C 3.56322 0.133706 3.49158 0.110659 3.40009 0.110659L 3.40009 1.11066ZM 3.26722 1.08814L 3.33018 1.12028L 3.78482 0.229602L 3.72186 0.197462L 3.26722 1.08814ZM 3.5575 1.17494L 3.58898 1.17494L 3.58898 0.174939L 3.5575 0.174939L 3.5575 1.17494ZM 3.36166 1.12028L 3.42463 1.15242L 3.87926 0.261739L 3.81629 0.229598L 3.36166 1.12028ZM 3.49087 1.18042C 3.64098 1.23151 3.71545 1.27295 3.78873 1.32905L 4.39666 0.535064C 4.21808 0.398332 4.0407 0.311213 3.81302 0.233736L 3.49087 1.18042ZM 3.78873 1.32905C 3.87683 1.39651 3.938 1.45888 4.00457 1.54949L 4.81047 0.957431C 4.68814 0.790921 4.56042 0.66045 4.39666 0.535064L 3.78873 1.32905ZM 4.00457 1.54949C 4.13026 1.72057 4.20019 1.91956 4.22472 2.16998L 5.21996 2.07249C 5.18153 1.68012 5.06257 1.30059 4.81047 0.957431L 4.00457 1.54949ZM 4.22234 2.12124C 4.22234 2.12143 4.22234 2.12161 4.22234 2.1218C 4.22234 2.12199 4.22234 2.12218 4.22234 2.12237C 4.22234 2.12255 4.22234 2.12274 4.22234 2.12293C 4.22234 2.12312 4.22234 2.1233 4.22234 2.12349C 4.22234 2.12368 4.22234 2.12387 4.22234 2.12405C 4.22234 2.12424 4.22234 2.12443 4.22234 2.12461C 4.22234 2.1248 4.22234 2.12499 4.22234 2.12517C 4.22234 2.12536 4.22234 2.12555 4.22234 2.12573C 4.22234 2.12592 4.22234 2.12611 4.22234 2.12629C 4.22234 2.12648 4.22234 2.12667 4.22234 2.12685C 4.22234 2.12704 4.22234 2.12722 4.22234 2.12741C 4.22234 2.12759 4.22234 2.12778 4.22234 2.12796C 4.22234 2.12815 4.22234 2.12834 4.22234 2.12852C 4.22234 2.12871 4.22234 2.12889 4.22234 2.12908C 4.22234 2.12926 4.22234 2.12945 4.22234 2.12963C 4.22234 2.12982 4.22234 2.13 4.22234 2.13018C 4.22234 2.13037 4.22234 2.13055 4.22234 2.13074C 4.22234 2.13092 4.22234 2.13111 4.22234 2.13129C 4.22234 2.13147 4.22234 2.13166 4.22234 2.13184C 4.22234 2.13203 4.22234 2.13221 4.22234 2.13239C 4.22234 2.13258 4.22234 2.13276 4.22234 2.13294C 4.22234 2.13313 4.22234 2.13331 4.22234 2.13349C 4.22234 2.13367 4.22234 2.13386 4.22234 2.13404C 4.22234 2.13422 4.22234 2.13441 4.22234 2.13459C 4.22234 2.13477 4.22234 2.13495 4.22234 2.13514C 4.22234 2.13532 4.22234 2.1355 4.22234 2.13568C 4.22234 2.13586 4.22234 2.13605 4.22234 2.13623C 4.22234 2.13641 4.22234 2.13659 4.22234 2.13677C 4.22234 2.13696 4.22234 2.13714 4.22234 2.13732C 4.22234 2.1375 4.22234 2.13768 4.22234 2.13786C 4.22234 2.13804 4.22234 2.13822 4.22234 2.13841C 4.22234 2.13859 4.22234 2.13877 4.22234 2.13895C 4.22234 2.13913 4.22234 2.13931 4.22234 2.13949C 4.22234 2.13967 4.22234 2.13985 4.22234 2.14003C 4.22234 2.14021 4.22234 2.14039 4.22234 2.14057C 4.22234 2.14075 4.22234 2.14093 4.22234 2.14111C 4.22234 2.14129 4.22234 2.14147 4.22234 2.14165C 4.22234 2.14183 4.22234 2.14201 4.22234 2.14219C 4.22234 2.14237 4.22234 2.14255 4.22234 2.14273C 4.22234 2.14291 4.22234 2.14308 4.22234 2.14326C 4.22234 2.14344 4.22234 2.14362 4.22234 2.1438C 4.22234 2.14398 4.22234 2.14416 4.22234 2.14434C 4.22234 2.14451 4.22234 2.14469 4.22234 2.14487C 4.22234 2.14505 4.22234 2.14523 4.22234 2.1454C 4.22234 2.14558 4.22234 2.14576 4.22234 2.14594C 4.22234 2.14612 4.22234 2.14629 4.22234 2.14647C 4.22234 2.14665 4.22234 2.14683 4.22234 2.147C 4.22234 2.14718 4.22234 2.14736 4.22234 2.14754C 4.22234 2.14771 4.22234 2.14789 4.22234 2.14807C 4.22234 2.14824 4.22234 2.14842 4.22234 2.1486C 4.22234 2.14877 4.22234 2.14895 4.22234 2.14913C 4.22234 2.1493 4.22234 2.14948 4.22234 2.14966C 4.22234 2.14983 4.22234 2.15001 4.22234 2.15018C 4.22234 2.15036 4.22234 2.15054 4.22234 2.15071C 4.22234 2.15089 4.22234 2.15106 4.22234 2.15124C 4.22234 2.15141 4.22234 2.15159 4.22234 2.15176C 4.22234 2.15194 4.22234 2.15212 4.22234 2.15229C 4.22234 2.15247 4.22234 2.15264 4.22234 2.15282C 4.22234 2.15299 4.22234 2.15316 4.22234 2.15334C 4.22234 2.15351 4.22234 2.15369 4.22234 2.15386C 4.22234 2.15404 4.22234 2.15421 4.22234 2.15439C 4.22234 2.15456 4.22234 2.15473 4.22234 2.15491C 4.22234 2.15508 4.22234 2.15526 4.22234 2.15543C 4.22234 2.1556 4.22234 2.15578 4.22234 2.15595C 4.22234 2.15613 4.22234 2.1563 4.22234 2.15647C 4.22234 2.15665 4.22234 2.15682 4.22234 2.15699C 4.22234 2.15717 4.22234 2.15734 4.22234 2.15751C 4.22234 2.15768 4.22234 2.15786 4.22234 2.15803C 4.22234 2.1582 4.22234 2.15838 4.22234 2.15855C 4.22234 2.15872 4.22234 2.15889 4.22234 2.15907C 4.22234 2.15924 4.22234 2.15941 4.22234 2.15958C 4.22234 2.15975 4.22234 2.15993 4.22234 2.1601C 4.22234 2.16027 4.22234 2.16044 4.22234 2.16061C 4.22234 2.16078 4.22234 2.16096 4.22234 2.16113C 4.22234 2.1613 4.22234 2.16147 4.22234 2.16164C 4.22234 2.16181 4.22234 2.16198 4.22234 2.16216C 4.22234 2.16233 4.22234 2.1625 4.22234 2.16267C 4.22234 2.16284 4.22234 2.16301 4.22234 2.16318C 4.22234 2.16335 4.22234 2.16352 4.22234 2.16369C 4.22234 2.16386 4.22234 2.16403 4.22234 2.1642C 4.22234 2.16437 4.22234 2.16454 4.22234 2.16471C 4.22234 2.16488 4.22234 2.16505 4.22234 2.16522C 4.22234 2.16539 4.22234 2.16556 4.22234 2.16573C 4.22234 2.1659 4.22234 2.16607 4.22234 2.16624C 4.22234 2.16641 4.22234 2.16658 4.22234 2.16675C 4.22234 2.16692 4.22234 2.16709 4.22234 2.16726C 4.22234 2.16743 4.22234 2.16759 4.22234 2.16776C 4.22234 2.16793 4.22234 2.1681 4.22234 2.16827C 4.22234 2.16844 4.22234 2.16861 4.22234 2.16877C 4.22234 2.16894 4.22234 2.16911 4.22234 2.16928C 4.22234 2.16945 4.22234 2.16962 4.22234 2.16978C 4.22234 2.16995 4.22234 2.17012 4.22234 2.17029C 4.22234 2.17046 4.22234 2.17062 4.22234 2.17079C 4.22234 2.17096 4.22234 2.17113 4.22234 2.17129C 4.22234 2.17146 4.22234 2.17163 4.22234 2.1718C 4.22234 2.17196 4.22234 2.17213 4.22234 2.1723C 4.22234 2.17246 4.22234 2.17263 4.22234 2.1728C 4.22234 2.17296 4.22234 2.17313 4.22234 2.1733C 4.22234 2.17346 4.22234 2.17363 4.22234 2.1738C 4.22234 2.17396 4.22234 2.17413 4.22234 2.1743C 4.22234 2.17446 4.22234 2.17463 4.22234 2.17479C 4.22234 2.17496 4.22234 2.17513 4.22234 2.17529C 4.22234 2.17546 4.22234 2.17562 4.22234 2.17579C 4.22234 2.17595 4.22234 2.17612 4.22234 2.17629C 4.22234 2.17645 4.22234 2.17662 4.22234 2.17678C 4.22234 2.17695 4.22234 2.17711 4.22234 2.17728C 4.22234 2.17744 4.22234 2.17761 4.22234 2.17777C 4.22234 2.17794 4.22234 2.1781 4.22234 2.17827C 4.22234 2.17843 4.22234 2.17859 4.22234 2.17876C 4.22234 2.17892 4.22234 2.17909 4.22234 2.17925C 4.22234 2.17942 4.22234 2.17958 4.22234 2.17974C 4.22234 2.17991 4.22234 2.18007 4.22234 2.18024C 4.22234 2.1804 4.22234 2.18056 4.22234 2.18073C 4.22234 2.18089 4.22234 2.18105 4.22234 2.18122C 4.22234 2.18138 4.22234 2.18155 4.22234 2.18171C 4.22234 2.18187 4.22234 2.18203 4.22234 2.1822C 4.22234 2.18236 4.22234 2.18252 4.22234 2.18269C 4.22234 2.18285 4.22234 2.18301 4.22234 2.18318C 4.22234 2.18334 4.22234 2.1835 4.22234 2.18366C 4.22234 2.18383 4.22234 2.18399 4.22234 2.18415C 4.22234 2.18431 4.22234 2.18448 4.22234 2.18464C 4.22234 2.1848 4.22234 2.18496 4.22234 2.18512C 4.22234 2.18529 4.22234 2.18545 4.22234 2.18561C 4.22234 2.18577 4.22234 2.18593 4.22234 2.18609C 4.22234 2.18626 4.22234 2.18642 4.22234 2.18658C 4.22234 2.18674 4.22234 2.1869 4.22234 2.18706C 4.22234 2.18722 4.22234 2.18739 4.22234 2.18755C 4.22234 2.18771 4.22234 2.18787 4.22234 2.18803C 4.22234 2.18819 4.22234 2.18835 4.22234 2.18851C 4.22234 2.18867 4.22234 2.18883 4.22234 2.18899C 4.22234 2.18915 4.22234 2.18931 4.22234 2.18947C 4.22234 2.18963 4.22234 2.18979 4.22234 2.18995C 4.22234 2.19011 4.22234 2.19027 4.22234 2.19043C 4.22234 2.19059 4.22234 2.19075 4.22234 2.19091C 4.22234 2.19107 4.22234 2.19123 4.22234 2.19139C 4.22234 2.19155 4.22234 2.19171 4.22234 2.19187C 4.22234 2.19203 4.22234 2.19219 4.22234 2.19235C 4.22234 2.19251 4.22234 2.19267 4.22234 2.19283C 4.22234 2.19299 4.22234 2.19315 4.22234 2.1933C 4.22234 2.19346 4.22234 2.19362 4.22234 2.19378C 4.22234 2.19394 4.22234 2.1941 4.22234 2.19426C 4.22234 2.19441 4.22234 2.19457 4.22234 2.19473C 4.22234 2.19489 4.22234 2.19505 4.22234 2.19521C 4.22234 2.19536 4.22234 2.19552 4.22234 2.19568C 4.22234 2.19584 4.22234 2.196 4.22234 2.19615C 4.22234 2.19631 4.22234 2.19647 4.22234 2.19663C 4.22234 2.19678 4.22234 2.19694 4.22234 2.1971C 4.22234 2.19726 4.22234 2.19741 4.22234 2.19757C 4.22234 2.19773 4.22234 2.19789 4.22234 2.19804C 4.22234 2.1982 4.22234 2.19836 4.22234 2.19851C 4.22234 2.19867 4.22234 2.19883 4.22234 2.19899C 4.22234 2.19914 4.22234 2.1993 4.22234 2.19946C 4.22234 2.19961 4.22234 2.19977 4.22234 2.19992C 4.22234 2.20008 4.22234 2.20024 4.22234 2.20039C 4.22234 2.20055 4.22234 2.20071 4.22234 2.20086C 4.22234 2.20102 4.22234 2.20117 4.22234 2.20133C 4.22234 2.20149 4.22234 2.20164 4.22234 2.2018C 4.22234 2.20195 4.22234 2.20211 4.22234 2.20226C 4.22234 2.20242 4.22234 2.20258 4.22234 2.20273C 4.22234 2.20289 4.22234 2.20304 4.22234 2.2032C 4.22234 2.20335 4.22234 2.20351 4.22234 2.20366C 4.22234 2.20382 4.22234 2.20397 4.22234 2.20413C 4.22234 2.20428 4.22234 2.20444 4.22234 2.20459C 4.22234 2.20475 4.22234 2.2049 4.22234 2.20506C 4.22234 2.20521 4.22234 2.20536 4.22234 2.20552C 4.22234 2.20567 4.22234 2.20583 4.22234 2.20598C 4.22234 2.20614 4.22234 2.20629 4.22234 2.20644C 4.22234 2.2066 4.22234 2.20675 4.22234 2.20691C 4.22234 2.20706 4.22234 2.20721 4.22234 2.20737C 4.22234 2.20752 4.22234 2.20767 4.22234 2.20783C 4.22234 2.20798 4.22234 2.20814 4.22234 2.20829C 4.22234 2.20844 4.22234 2.2086 4.22234 2.20875C 4.22234 2.2089 4.22234 2.20905 4.22234 2.20921C 4.22234 2.20936 4.22234 2.20951 4.22234 2.20967C 4.22234 2.20982 4.22234 2.20997 4.22234 2.21013C 4.22234 2.21028 4.22234 2.21043 4.22234 2.21058C 4.22234 2.21074 4.22234 2.21089 4.22234 2.21104C 4.22234 2.21119 4.22234 2.21135 4.22234 2.2115C 4.22234 2.21165 4.22234 2.2118 4.22234 2.21195C 4.22234 2.21211 4.22234 2.21226 4.22234 2.21241C 4.22234 2.21256 4.22234 2.21271 4.22234 2.21287C 4.22234 2.21302 4.22234 2.21317 4.22234 2.21332C 4.22234 2.21347 4.22234 2.21362 4.22234 2.21378C 4.22234 2.21393 4.22234 2.21408 4.22234 2.21423C 4.22234 2.21438 4.22234 2.21453 4.22234 2.21468C 4.22234 2.21483 4.22234 2.21499 4.22234 2.21514C 4.22234 2.21529 4.22234 2.21544 4.22234 2.21559C 4.22234 2.21574 4.22234 2.21589 4.22234 2.21604C 4.22234 2.21619 4.22234 2.21634 4.22234 2.21649C 4.22234 2.21664 4.22234 2.21679 4.22234 2.21695C 4.22234 2.2171 4.22234 2.21725 4.22234 2.2174C 4.22234 2.21755 4.22234 2.2177 4.22234 2.21785C 4.22234 2.218 4.22234 2.21815 4.22234 2.2183C 4.22234 2.21845 4.22234 2.2186 4.22234 2.21875C 4.22234 2.2189 4.22234 2.21905 4.22234 2.21919C 4.22234 2.21934 4.22234 2.21949 4.22234 2.21964C 4.22234 2.21979 4.22234 2.21994 4.22234 2.22009C 4.22234 2.22024 4.22234 2.22039 4.22234 2.22054C 4.22234 2.22069 4.22234 2.22084 4.22234 2.22099C 4.22234 2.22114 4.22234 2.22128 4.22234 2.22143C 4.22234 2.22158 4.22234 2.22173 4.22234 2.22188C 4.22234 2.22203 4.22234 2.22218 4.22234 2.22233C 4.22234 2.22247 4.22234 2.22262 4.22234 2.22277C 4.22234 2.22292 4.22234 2.22307 4.22234 2.22322C 4.22234 2.22336 4.22234 2.22351 4.22234 2.22366C 4.22234 2.22381 4.22234 2.22396 4.22234 2.2241C 4.22234 2.22425 4.22234 2.2244 4.22234 2.22455C 4.22234 2.2247 4.22234 2.22484 4.22234 2.22499C 4.22234 2.22514 4.22234 2.22529 4.22234 2.22543C 4.22234 2.22558 4.22234 2.22573 4.22234 2.22588C 4.22234 2.22602 4.22234 2.22617 4.22234 2.22632C 4.22234 2.22647 4.22234 2.22661 4.22234 2.22676C 4.22234 2.22691 4.22234 2.22705 4.22234 2.2272C 4.22234 2.22735 4.22234 2.2275 4.22234 2.22764C 4.22234 2.22779 4.22234 2.22794 4.22234 2.22808C 4.22234 2.22823 4.22234 2.22838 4.22234 2.22852C 4.22234 2.22867 4.22234 2.22882 4.22234 2.22896C 4.22234 2.22911 4.22234 2.22925 4.22234 2.2294C 4.22234 2.22955 4.22234 2.22969 4.22234 2.22984C 4.22234 2.22998 4.22234 2.23013 4.22234 2.23028C 4.22234 2.23042 4.22234 2.23057 4.22234 2.23071C 4.22234 2.23086 4.22234 2.23101 4.22234 2.23115C 4.22234 2.2313 4.22234 2.23144 4.22234 2.23159C 4.22234 2.23173 4.22234 2.23188 4.22234 2.23203C 4.22234 2.23217 4.22234 2.23232 4.22234 2.23246C 4.22234 2.23261 4.22234 2.23275 4.22234 2.2329C 4.22234 2.23304 4.22234 2.23319 4.22234 2.23333C 4.22234 2.23348 4.22234 2.23362 4.22234 2.23377C 4.22234 2.23391 4.22234 2.23406 4.22234 2.2342C 4.22234 2.23435 4.22234 2.23449 4.22234 2.23464C 4.22234 2.23478 4.22234 2.23492 4.22234 2.23507C 4.22234 2.23521 4.22234 2.23536 4.22234 2.2355C 4.22234 2.23565 4.22234 2.23579 4.22234 2.23593C 4.22234 2.23608 4.22234 2.23622 4.22234 2.23637C 4.22234 2.23651 4.22234 2.23666 4.22234 2.2368C 4.22234 2.23694 4.22234 2.23709 4.22234 2.23723C 4.22234 2.23737 4.22234 2.23752 4.22234 2.23766C 4.22234 2.23781 4.22234 2.23795 4.22234 2.23809C 4.22234 2.23824 4.22234 2.23838 4.22234 2.23852C 4.22234 2.23867 4.22234 2.23881 4.22234 2.23895C 4.22234 2.2391 4.22234 2.23924 4.22234 2.23938C 4.22234 2.23953 4.22234 2.23967 4.22234 2.23981C 4.22234 2.23995 4.22234 2.2401 4.22234 2.24024C 4.22234 2.24038 4.22234 2.24053 4.22234 2.24067C 4.22234 2.24081 4.22234 2.24095 4.22234 2.2411C 4.22234 2.24124 4.22234 2.24138 4.22234 2.24152C 4.22234 2.24167 4.22234 2.24181 4.22234 2.24195C 4.22234 2.24209 4.22234 2.24224 4.22234 2.24238C 4.22234 2.24252 4.22234 2.24266 4.22234 2.24281C 4.22234 2.24295 4.22234 2.24309 4.22234 2.24323C 4.22234 2.24337 4.22234 2.24352 4.22234 2.24366C 4.22234 2.2438 4.22234 2.24394 4.22234 2.24408C 4.22234 2.24422 4.22234 2.24437 4.22234 2.24451C 4.22234 2.24465 4.22234 2.24479 4.22234 2.24493C 4.22234 2.24507 4.22234 2.24522 4.22234 2.24536C 4.22234 2.2455 4.22234 2.24564 4.22234 2.24578C 4.22234 2.24592 4.22234 2.24606 4.22234 2.2462C 4.22234 2.24635 4.22234 2.24649 4.22234 2.24663C 4.22234 2.24677 4.22234 2.24691 4.22234 2.24705C 4.22234 2.24719 4.22234 2.24733 4.22234 2.24747C 4.22234 2.24761 4.22234 2.24775 4.22234 2.24789C 4.22234 2.24804 4.22234 2.24818 4.22234 2.24832C 4.22234 2.24846 4.22234 2.2486 4.22234 2.24874C 4.22234 2.24888 4.22234 2.24902 4.22234 2.24916C 4.22234 2.2493 4.22234 2.24944 4.22234 2.24958C 4.22234 2.24972 4.22234 2.24986 4.22234 2.25C 4.22234 2.25014 4.22234 2.25028 4.22234 2.25042C 4.22234 2.25056 4.22234 2.2507 4.22234 2.25084C 4.22234 2.25098 4.22234 2.25112 4.22234 2.25126C 4.22234 2.2514 4.22234 2.25154 4.22234 2.25168C 4.22234 2.25182 4.22234 2.25196 4.22234 2.2521C 4.22234 2.25224 4.22234 2.25237 4.22234 2.25251C 4.22234 2.25265 4.22234 2.25279 4.22234 2.25293C 4.22234 2.25307 4.22234 2.25321 4.22234 2.25335C 4.22234 2.25349 4.22234 2.25363 4.22234 2.25377C 4.22234 2.25391 4.22234 2.25404 4.22234 2.25418C 4.22234 2.25432 4.22234 2.25446 4.22234 2.2546C 4.22234 2.25474 4.22234 2.25488 4.22234 2.25502C 4.22234 2.25515 4.22234 2.25529 4.22234 2.25543C 4.22234 2.25557 4.22234 2.25571 4.22234 2.25585C 4.22234 2.25599 4.22234 2.25612 4.22234 2.25626C 4.22234 2.2564 4.22234 2.25654 4.22234 2.25668C 4.22234 2.25682 4.22234 2.25695 4.22234 2.25709C 4.22234 2.25723 4.22234 2.25737 4.22234 2.25751C 4.22234 2.25764 4.22234 2.25778 4.22234 2.25792C 4.22234 2.25806 4.22234 2.2582 4.22234 2.25833C 4.22234 2.25847 4.22234 2.25861 4.22234 2.25875C 4.22234 2.25888 4.22234 2.25902 4.22234 2.25916C 4.22234 2.2593 4.22234 2.25943 4.22234 2.25957C 4.22234 2.25971 4.22234 2.25985 4.22234 2.25998C 4.22234 2.26012 4.22234 2.26026 4.22234 2.2604C 4.22234 2.26053 4.22234 2.26067 4.22234 2.26081C 4.22234 2.26094 4.22234 2.26108 4.22234 2.26122C 4.22234 2.26136 4.22234 2.26149 4.22234 2.26163C 4.22234 2.26177 4.22234 2.2619 4.22234 2.26204C 4.22234 2.26218 4.22234 2.26231 4.22234 2.26245C 4.22234 2.26259 4.22234 2.26272 4.22234 2.26286C 4.22234 2.263 4.22234 2.26313 4.22234 2.26327C 4.22234 2.26341 4.22234 2.26354 4.22234 2.26368C 4.22234 2.26382 4.22234 2.26395 4.22234 2.26409C 4.22234 2.26423 4.22234 2.26436 4.22234 2.2645C 4.22234 2.26463 4.22234 2.26477 4.22234 2.26491C 4.22234 2.26504 4.22234 2.26518 4.22234 2.26531C 4.22234 2.26545 4.22234 2.26559 4.22234 2.26572C 4.22234 2.26586 4.22234 2.26599 4.22234 2.26613C 4.22234 2.26627 4.22234 2.2664 4.22234 2.26654C 4.22234 2.26667 4.22234 2.26681 4.22234 2.26694C 4.22234 2.26708 4.22234 2.26722 4.22234 2.26735C 4.22234 2.26749 4.22234 2.26762 4.22234 2.26776C 4.22234 2.26789 4.22234 2.26803 4.22234 2.26816C 4.22234 2.2683 4.22234 2.26843 4.22234 2.26857C 4.22234 2.2687 4.22234 2.26884 4.22234 2.26897C 4.22234 2.26911 4.22234 2.26924 4.22234 2.26938C 4.22234 2.26951 4.22234 2.26965 4.22234 2.26978C 4.22234 2.26992 4.22234 2.27005 4.22234 2.27019C 4.22234 2.27032 4.22234 2.27046 4.22234 2.27059C 4.22234 2.27073 4.22234 2.27086 4.22234 2.271C 4.22234 2.27113 4.22234 2.27127 4.22234 2.2714C 4.22234 2.27154 4.22234 2.27167 4.22234 2.27181C 4.22234 2.27194 4.22234 2.27207 4.22234 2.27221C 4.22234 2.27234 4.22234 2.27248 4.22234 2.27261C 4.22234 2.27275 4.22234 2.27288 4.22234 2.27301C 4.22234 2.27315 4.22234 2.27328 4.22234 2.27342C 4.22234 2.27355 4.22234 2.27368 4.22234 2.27382C 4.22234 2.27395 4.22234 2.27409 4.22234 2.27422C 4.22234 2.27435 4.22234 2.27449 4.22234 2.27462C 4.22234 2.27476 4.22234 2.27489 4.22234 2.27502C 4.22234 2.27516 4.22234 2.27529 4.22234 2.27542C 4.22234 2.27556 4.22234 2.27569 4.22234 2.27583C 4.22234 2.27596 4.22234 2.27609 4.22234 2.27623C 4.22234 2.27636 4.22234 2.27649 4.22234 2.27663C 4.22234 2.27676 4.22234 2.27689 4.22234 2.27703C 4.22234 2.27716 4.22234 2.27729 4.22234 2.27743C 4.22234 2.27756 4.22234 2.27769 4.22234 2.27783C 4.22234 2.27796 4.22234 2.27809 4.22234 2.27822C 4.22234 2.27836 4.22234 2.27849 4.22234 2.27862C 4.22234 2.27876 4.22234 2.27889 4.22234 2.27902C 4.22234 2.27916 4.22234 2.27929 4.22234 2.27942C 4.22234 2.27955 4.22234 2.27969 4.22234 2.27982C 4.22234 2.27995 4.22234 2.28008 4.22234 2.28022C 4.22234 2.28035 4.22234 2.28048 4.22234 2.28062C 4.22234 2.28075 4.22234 2.28088 4.22234 2.28101C 4.22234 2.28115 4.22234 2.28128 4.22234 2.28141C 4.22234 2.28154 4.22234 2.28167 4.22234 2.28181C 4.22234 2.28194 4.22234 2.28207 4.22234 2.2822C 4.22234 2.28234 4.22234 2.28247 4.22234 2.2826C 4.22234 2.28273 4.22234 2.28286 4.22234 2.283C 4.22234 2.28313 4.22234 2.28326 4.22234 2.28339C 4.22234 2.28352 4.22234 2.28366 4.22234 2.28379C 4.22234 2.28392 4.22234 2.28405 4.22234 2.28418C 4.22234 2.28432 4.22234 2.28445 4.22234 2.28458C 4.22234 2.28471 4.22234 2.28484 4.22234 2.28497C 4.22234 2.28511 4.22234 2.28524 4.22234 2.28537C 4.22234 2.2855 4.22234 2.28563 4.22234 2.28576C 4.22234 2.2859 4.22234 2.28603 4.22234 2.28616C 4.22234 2.28629 4.22234 2.28642 4.22234 2.28655C 4.22234 2.28668 4.22234 2.28682 4.22234 2.28695C 4.22234 2.28708 4.22234 2.28721 4.22234 2.28734C 4.22234 2.28747 4.22234 2.2876 4.22234 2.28773C 4.22234 2.28787 4.22234 2.288 4.22234 2.28813C 4.22234 2.28826 4.22234 2.28839 4.22234 2.28852C 4.22234 2.28865 4.22234 2.28878 4.22234 2.28891C 4.22234 2.28904 4.22234 2.28918 4.22234 2.28931C 4.22234 2.28944 4.22234 2.28957 4.22234 2.2897C 4.22234 2.28983 4.22234 2.28996 4.22234 2.29009C 4.22234 2.29022 4.22234 2.29035 4.22234 2.29048C 4.22234 2.29061 4.22234 2.29074 4.22234 2.29088C 4.22234 2.29101 4.22234 2.29114 4.22234 2.29127C 4.22234 2.2914 4.22234 2.29153 4.22234 2.29166C 4.22234 2.29179 4.22234 2.29192 4.22234 2.29205C 4.22234 2.29218 4.22234 2.29231 4.22234 2.29244C 4.22234 2.29257 4.22234 2.2927 4.22234 2.29283C 4.22234 2.29296 4.22234 2.29309 4.22234 2.29322C 4.22234 2.29335 4.22234 2.29348 4.22234 2.29361C 4.22234 2.29374 4.22234 2.29387 4.22234 2.294C 4.22234 2.29413 4.22234 2.29426 4.22234 2.29439C 4.22234 2.29452 4.22234 2.29465 4.22234 2.29478C 4.22234 2.29491 4.22234 2.29504 4.22234 2.29517C 4.22234 2.2953 4.22234 2.29543 4.22234 2.29556C 4.22234 2.29569 4.22234 2.29582 4.22234 2.29595C 4.22234 2.29608 4.22234 2.29621 4.22234 2.29634C 4.22234 2.29647 4.22234 2.2966 4.22234 2.29673C 4.22234 2.29686 4.22234 2.29699 4.22234 2.29712C 4.22234 2.29725 4.22234 2.29738 4.22234 2.29751C 4.22234 2.29764 4.22234 2.29776 4.22234 2.29789C 4.22234 2.29802 4.22234 2.29815 4.22234 2.29828C 4.22234 2.29841 4.22234 2.29854 4.22234 2.29867C 4.22234 2.2988 4.22234 2.29893 4.22234 2.29906C 4.22234 2.29919 4.22234 2.29932 4.22234 2.29945C 4.22234 2.29957 4.22234 2.2997 4.22234 2.29983C 4.22234 2.29996 4.22234 2.30009 4.22234 2.30022C 4.22234 2.30035 4.22234 2.30048 4.22234 2.30061C 4.22234 2.30074 4.22234 2.30087 4.22234 2.30099C 4.22234 2.30112 4.22234 2.30125 4.22234 2.30138C 4.22234 2.30151 4.22234 2.30164 4.22234 2.30177C 4.22234 2.3019 4.22234 2.30203 4.22234 2.30215C 4.22234 2.30228 4.22234 2.30241 4.22234 2.30254C 4.22234 2.30267 4.22234 2.3028 4.22234 2.30293C 4.22234 2.30306 4.22234 2.30318 4.22234 2.30331C 4.22234 2.30344 4.22234 2.30357 4.22234 2.3037C 4.22234 2.30383 4.22234 2.30396 4.22234 2.30408C 4.22234 2.30421 4.22234 2.30434 4.22234 2.30447C 4.22234 2.3046 4.22234 2.30473 4.22234 2.30485C 4.22234 2.30498 4.22234 2.30511 4.22234 2.30524C 4.22234 2.30537 4.22234 2.3055 4.22234 2.30562C 4.22234 2.30575 4.22234 2.30588 4.22234 2.30601C 4.22234 2.30614 4.22234 2.30627 4.22234 2.30639C 4.22234 2.30652 4.22234 2.30665 4.22234 2.30678C 4.22234 2.30691 4.22234 2.30703 4.22234 2.30716C 4.22234 2.30729 4.22234 2.30742 4.22234 2.30755C 4.22234 2.30767 4.22234 2.3078 4.22234 2.30793C 4.22234 2.30806 4.22234 2.30819 4.22234 2.30831C 4.22234 2.30844 4.22234 2.30857 4.22234 2.3087C 4.22234 2.30883 4.22234 2.30895 4.22234 2.30908C 4.22234 2.30921 4.22234 2.30934 4.22234 2.30947C 4.22234 2.30959 4.22234 2.30972 4.22234 2.30985C 4.22234 2.30998 4.22234 2.3101 4.22234 2.31023C 4.22234 2.31036 4.22234 2.31049 4.22234 2.31062C 4.22234 2.31074 4.22234 2.31087 4.22234 2.311C 4.22234 2.31113 4.22234 2.31125 4.22234 2.31138C 4.22234 2.31151 4.22234 2.31164 4.22234 2.31176C 4.22234 2.31189 4.22234 2.31202 4.22234 2.31215C 4.22234 2.31227 4.22234 2.3124 4.22234 2.31253C 4.22234 2.31266 4.22234 2.31278 4.22234 2.31291C 4.22234 2.31304 4.22234 2.31317 4.22234 2.31329C 4.22234 2.31342 4.22234 2.31355 4.22234 2.31367C 4.22234 2.3138 4.22234 2.31393 4.22234 2.31406C 4.22234 2.31418 4.22234 2.31431 4.22234 2.31444C 4.22234 2.31457 4.22234 2.31469 4.22234 2.31482C 4.22234 2.31495 4.22234 2.31507 4.22234 2.3152C 4.22234 2.31533 4.22234 2.31546 4.22234 2.31558C 4.22234 2.31571 4.22234 2.31584 4.22234 2.31596C 4.22234 2.31609 4.22234 2.31622 4.22234 2.31635C 4.22234 2.31647 4.22234 2.3166 4.22234 2.31673C 4.22234 2.31685 4.22234 2.31698 4.22234 2.31711C 4.22234 2.31723 4.22234 2.31736 4.22234 2.31749C 4.22234 2.31762 4.22234 2.31774 4.22234 2.31787C 4.22234 2.318 4.22234 2.31812 4.22234 2.31825C 4.22234 2.31838 4.22234 2.3185 4.22234 2.31863C 4.22234 2.31876 4.22234 2.31888 4.22234 2.31901C 4.22234 2.31914 4.22234 2.31926 4.22234 2.31939C 4.22234 2.31952 4.22234 2.31964 4.22234 2.31977C 4.22234 2.3199 4.22234 2.32002 4.22234 2.32015C 4.22234 2.32028 4.22234 2.3204 4.22234 2.32053C 4.22234 2.32066 4.22234 2.32078 4.22234 2.32091C 4.22234 2.32104 4.22234 2.32116 4.22234 2.32129C 4.22234 2.32142 4.22234 2.32154 4.22234 2.32167C 4.22234 2.3218 4.22234 2.32192 4.22234 2.32205C 4.22234 2.32218 4.22234 2.3223 4.22234 2.32243C 4.22234 2.32256 4.22234 2.32268 4.22234 2.32281C 4.22234 2.32294 4.22234 2.32306 4.22234 2.32319C 4.22234 2.32332 4.22234 2.32344 4.22234 2.32357C 4.22234 2.32369 4.22234 2.32382 4.22234 2.32395C 4.22234 2.32407 4.22234 2.3242 4.22234 2.32433C 4.22234 2.32445 4.22234 2.32458 4.22234 2.32471C 4.22234 2.32483 4.22234 2.32496 4.22234 2.32508C 4.22234 2.32521 4.22234 2.32534 4.22234 2.32546C 4.22234 2.32559 4.22234 2.32572 4.22234 2.32584C 4.22234 2.32597 4.22234 2.32609 4.22234 2.32622C 4.22234 2.32635 4.22234 2.32647 4.22234 2.3266C 4.22234 2.32673 4.22234 2.32685 4.22234 2.32698C 4.22234 2.3271 4.22234 2.32723 4.22234 2.32736C 4.22234 2.32748 4.22234 2.32761 4.22234 2.32773C 4.22234 2.32786 4.22234 2.32799 4.22234 2.32811C 4.22234 2.32824 4.22234 2.32837 4.22234 2.32849C 4.22234 2.32862 4.22234 2.32874 4.22234 2.32887C 4.22234 2.329 4.22234 2.32912 4.22234 2.32925C 4.22234 2.32937 4.22234 2.3295 4.22234 2.32963C 4.22234 2.32975 4.22234 2.32988 4.22234 2.33C 4.22234 2.33013 4.22234 2.33026 4.22234 2.33038C 4.22234 2.33051 4.22234 2.33063 4.22234 2.33076C 4.22234 2.33089 4.22234 2.33101 4.22234 2.33114C 4.22234 2.33126 4.22234 2.33139 4.22234 2.33151C 4.22234 2.33164 4.22234 2.33177 4.22234 2.33189C 4.22234 2.33202 4.22234 2.33214 4.22234 2.33227C 4.22234 2.3324 4.22234 2.33252 4.22234 2.33265C 4.22234 2.33277 4.22234 2.3329 4.22234 2.33303C 4.22234 2.33315 4.22234 2.33328 4.22234 2.3334C 4.22234 2.33353 4.22234 2.33365 4.22234 2.33378C 4.22234 2.33391 4.22234 2.33403 4.22234 2.33416C 4.22234 2.33428 4.22234 2.33441 4.22234 2.33454C 4.22234 2.33466 4.22234 2.33479 4.22234 2.33491C 4.22234 2.33504 4.22234 2.33516 4.22234 2.33529C 4.22234 2.33542 4.22234 2.33554 4.22234 2.33567C 4.22234 2.33579 4.22234 2.33592 4.22234 2.33604C 4.22234 2.33617 4.22234 2.3363 4.22234 2.33642C 4.22234 2.33655 4.22234 2.33667 4.22234 2.3368C 4.22234 2.33692 4.22234 2.33705 4.22234 2.33718C 4.22234 2.3373 4.22234 2.33743 4.22234 2.33755C 4.22234 2.33768 4.22234 2.3378 4.22234 2.33793C 4.22234 2.33806 4.22234 2.33818 4.22234 2.33831C 4.22234 2.33843 4.22234 2.33856 4.22234 2.33868C 4.22234 2.33881 4.22234 2.33893 4.22234 2.33906C 4.22234 2.33919 4.22234 2.33931 4.22234 2.33944C 4.22234 2.33956 4.22234 2.33969 4.22234 2.33981C 4.22234 2.33994 4.22234 2.34007 4.22234 2.34019C 4.22234 2.34032 4.22234 2.34044 4.22234 2.34057C 4.22234 2.34069 4.22234 2.34082 4.22234 2.34094C 4.22234 2.34107 4.22234 2.3412 4.22234 2.34132C 4.22234 2.34145 4.22234 2.34157 4.22234 2.3417C 4.22234 2.34182 4.22234 2.34195 4.22234 2.34207C 4.22234 2.3422 4.22234 2.34233 4.22234 2.34245C 4.22234 2.34258 4.22234 2.3427 4.22234 2.34283C 4.22234 2.34295 4.22234 2.34308 4.22234 2.3432C 4.22234 2.34333 4.22234 2.34346 4.22234 2.34358C 4.22234 2.34371 4.22234 2.34383 4.22234 2.34396C 4.22234 2.34408 4.22234 2.34421 4.22234 2.34433C 4.22234 2.34446 4.22234 2.34459 4.22234 2.34471C 4.22234 2.34484 4.22234 2.34496 4.22234 2.34509C 4.22234 2.34521 4.22234 2.34534 4.22234 2.34546C 4.22234 2.34559 4.22234 2.34572 4.22234 2.34584C 4.22234 2.34597 4.22234 2.34609 4.22234 2.34622L 5.22234 2.34622C 5.22234 2.34609 5.22234 2.34597 5.22234 2.34584C 5.22234 2.34572 5.22234 2.34559 5.22234 2.34546C 5.22234 2.34534 5.22234 2.34521 5.22234 2.34509C 5.22234 2.34496 5.22234 2.34484 5.22234 2.34471C 5.22234 2.34459 5.22234 2.34446 5.22234 2.34433C 5.22234 2.34421 5.22234 2.34408 5.22234 2.34396C 5.22234 2.34383 5.22234 2.34371 5.22234 2.34358C 5.22234 2.34346 5.22234 2.34333 5.22234 2.3432C 5.22234 2.34308 5.22234 2.34295 5.22234 2.34283C 5.22234 2.3427 5.22234 2.34258 5.22234 2.34245C 5.22234 2.34233 5.22234 2.3422 5.22234 2.34207C 5.22234 2.34195 5.22234 2.34182 5.22234 2.3417C 5.22234 2.34157 5.22234 2.34145 5.22234 2.34132C 5.22234 2.3412 5.22234 2.34107 5.22234 2.34094C 5.22234 2.34082 5.22234 2.34069 5.22234 2.34057C 5.22234 2.34044 5.22234 2.34032 5.22234 2.34019C 5.22234 2.34007 5.22234 2.33994 5.22234 2.33981C 5.22234 2.33969 5.22234 2.33956 5.22234 2.33944C 5.22234 2.33931 5.22234 2.33919 5.22234 2.33906C 5.22234 2.33893 5.22234 2.33881 5.22234 2.33868C 5.22234 2.33856 5.22234 2.33843 5.22234 2.33831C 5.22234 2.33818 5.22234 2.33806 5.22234 2.33793C 5.22234 2.3378 5.22234 2.33768 5.22234 2.33755C 5.22234 2.33743 5.22234 2.3373 5.22234 2.33718C 5.22234 2.33705 5.22234 2.33692 5.22234 2.3368C 5.22234 2.33667 5.22234 2.33655 5.22234 2.33642C 5.22234 2.3363 5.22234 2.33617 5.22234 2.33604C 5.22234 2.33592 5.22234 2.33579 5.22234 2.33567C 5.22234 2.33554 5.22234 2.33542 5.22234 2.33529C 5.22234 2.33516 5.22234 2.33504 5.22234 2.33491C 5.22234 2.33479 5.22234 2.33466 5.22234 2.33454C 5.22234 2.33441 5.22234 2.33428 5.22234 2.33416C 5.22234 2.33403 5.22234 2.33391 5.22234 2.33378C 5.22234 2.33365 5.22234 2.33353 5.22234 2.3334C 5.22234 2.33328 5.22234 2.33315 5.22234 2.33303C 5.22234 2.3329 5.22234 2.33277 5.22234 2.33265C 5.22234 2.33252 5.22234 2.3324 5.22234 2.33227C 5.22234 2.33214 5.22234 2.33202 5.22234 2.33189C 5.22234 2.33177 5.22234 2.33164 5.22234 2.33151C 5.22234 2.33139 5.22234 2.33126 5.22234 2.33114C 5.22234 2.33101 5.22234 2.33089 5.22234 2.33076C 5.22234 2.33063 5.22234 2.33051 5.22234 2.33038C 5.22234 2.33026 5.22234 2.33013 5.22234 2.33C 5.22234 2.32988 5.22234 2.32975 5.22234 2.32963C 5.22234 2.3295 5.22234 2.32937 5.22234 2.32925C 5.22234 2.32912 5.22234 2.329 5.22234 2.32887C 5.22234 2.32874 5.22234 2.32862 5.22234 2.32849C 5.22234 2.32837 5.22234 2.32824 5.22234 2.32811C 5.22234 2.32799 5.22234 2.32786 5.22234 2.32773C 5.22234 2.32761 5.22234 2.32748 5.22234 2.32736C 5.22234 2.32723 5.22234 2.3271 5.22234 2.32698C 5.22234 2.32685 5.22234 2.32673 5.22234 2.3266C 5.22234 2.32647 5.22234 2.32635 5.22234 2.32622C 5.22234 2.32609 5.22234 2.32597 5.22234 2.32584C 5.22234 2.32572 5.22234 2.32559 5.22234 2.32546C 5.22234 2.32534 5.22234 2.32521 5.22234 2.32508C 5.22234 2.32496 5.22234 2.32483 5.22234 2.32471C 5.22234 2.32458 5.22234 2.32445 5.22234 2.32433C 5.22234 2.3242 5.22234 2.32407 5.22234 2.32395C 5.22234 2.32382 5.22234 2.32369 5.22234 2.32357C 5.22234 2.32344 5.22234 2.32332 5.22234 2.32319C 5.22234 2.32306 5.22234 2.32294 5.22234 2.32281C 5.22234 2.32268 5.22234 2.32256 5.22234 2.32243C 5.22234 2.3223 5.22234 2.32218 5.22234 2.32205C 5.22234 2.32192 5.22234 2.3218 5.22234 2.32167C 5.22234 2.32154 5.22234 2.32142 5.22234 2.32129C 5.22234 2.32116 5.22234 2.32104 5.22234 2.32091C 5.22234 2.32078 5.22234 2.32066 5.22234 2.32053C 5.22234 2.3204 5.22234 2.32028 5.22234 2.32015C 5.22234 2.32002 5.22234 2.3199 5.22234 2.31977C 5.22234 2.31964 5.22234 2.31952 5.22234 2.31939C 5.22234 2.31926 5.22234 2.31914 5.22234 2.31901C 5.22234 2.31888 5.22234 2.31876 5.22234 2.31863C 5.22234 2.3185 5.22234 2.31838 5.22234 2.31825C 5.22234 2.31812 5.22234 2.318 5.22234 2.31787C 5.22234 2.31774 5.22234 2.31762 5.22234 2.31749C 5.22234 2.31736 5.22234 2.31723 5.22234 2.31711C 5.22234 2.31698 5.22234 2.31685 5.22234 2.31673C 5.22234 2.3166 5.22234 2.31647 5.22234 2.31635C 5.22234 2.31622 5.22234 2.31609 5.22234 2.31596C 5.22234 2.31584 5.22234 2.31571 5.22234 2.31558C 5.22234 2.31546 5.22234 2.31533 5.22234 2.3152C 5.22234 2.31507 5.22234 2.31495 5.22234 2.31482C 5.22234 2.31469 5.22234 2.31457 5.22234 2.31444C 5.22234 2.31431 5.22234 2.31418 5.22234 2.31406C 5.22234 2.31393 5.22234 2.3138 5.22234 2.31367C 5.22234 2.31355 5.22234 2.31342 5.22234 2.31329C 5.22234 2.31317 5.22234 2.31304 5.22234 2.31291C 5.22234 2.31278 5.22234 2.31266 5.22234 2.31253C 5.22234 2.3124 5.22234 2.31227 5.22234 2.31215C 5.22234 2.31202 5.22234 2.31189 5.22234 2.31176C 5.22234 2.31164 5.22234 2.31151 5.22234 2.31138C 5.22234 2.31125 5.22234 2.31113 5.22234 2.311C 5.22234 2.31087 5.22234 2.31074 5.22234 2.31062C 5.22234 2.31049 5.22234 2.31036 5.22234 2.31023C 5.22234 2.3101 5.22234 2.30998 5.22234 2.30985C 5.22234 2.30972 5.22234 2.30959 5.22234 2.30947C 5.22234 2.30934 5.22234 2.30921 5.22234 2.30908C 5.22234 2.30895 5.22234 2.30883 5.22234 2.3087C 5.22234 2.30857 5.22234 2.30844 5.22234 2.30831C 5.22234 2.30819 5.22234 2.30806 5.22234 2.30793C 5.22234 2.3078 5.22234 2.30767 5.22234 2.30755C 5.22234 2.30742 5.22234 2.30729 5.22234 2.30716C 5.22234 2.30703 5.22234 2.30691 5.22234 2.30678C 5.22234 2.30665 5.22234 2.30652 5.22234 2.30639C 5.22234 2.30627 5.22234 2.30614 5.22234 2.30601C 5.22234 2.30588 5.22234 2.30575 5.22234 2.30562C 5.22234 2.3055 5.22234 2.30537 5.22234 2.30524C 5.22234 2.30511 5.22234 2.30498 5.22234 2.30485C 5.22234 2.30473 5.22234 2.3046 5.22234 2.30447C 5.22234 2.30434 5.22234 2.30421 5.22234 2.30408C 5.22234 2.30396 5.22234 2.30383 5.22234 2.3037C 5.22234 2.30357 5.22234 2.30344 5.22234 2.30331C 5.22234 2.30318 5.22234 2.30306 5.22234 2.30293C 5.22234 2.3028 5.22234 2.30267 5.22234 2.30254C 5.22234 2.30241 5.22234 2.30228 5.22234 2.30215C 5.22234 2.30203 5.22234 2.3019 5.22234 2.30177C 5.22234 2.30164 5.22234 2.30151 5.22234 2.30138C 5.22234 2.30125 5.22234 2.30112 5.22234 2.30099C 5.22234 2.30087 5.22234 2.30074 5.22234 2.30061C 5.22234 2.30048 5.22234 2.30035 5.22234 2.30022C 5.22234 2.30009 5.22234 2.29996 5.22234 2.29983C 5.22234 2.2997 5.22234 2.29957 5.22234 2.29945C 5.22234 2.29932 5.22234 2.29919 5.22234 2.29906C 5.22234 2.29893 5.22234 2.2988 5.22234 2.29867C 5.22234 2.29854 5.22234 2.29841 5.22234 2.29828C 5.22234 2.29815 5.22234 2.29802 5.22234 2.29789C 5.22234 2.29776 5.22234 2.29764 5.22234 2.29751C 5.22234 2.29738 5.22234 2.29725 5.22234 2.29712C 5.22234 2.29699 5.22234 2.29686 5.22234 2.29673C 5.22234 2.2966 5.22234 2.29647 5.22234 2.29634C 5.22234 2.29621 5.22234 2.29608 5.22234 2.29595C 5.22234 2.29582 5.22234 2.29569 5.22234 2.29556C 5.22234 2.29543 5.22234 2.2953 5.22234 2.29517C 5.22234 2.29504 5.22234 2.29491 5.22234 2.29478C 5.22234 2.29465 5.22234 2.29452 5.22234 2.29439C 5.22234 2.29426 5.22234 2.29413 5.22234 2.294C 5.22234 2.29387 5.22234 2.29374 5.22234 2.29361C 5.22234 2.29348 5.22234 2.29335 5.22234 2.29322C 5.22234 2.29309 5.22234 2.29296 5.22234 2.29283C 5.22234 2.2927 5.22234 2.29257 5.22234 2.29244C 5.22234 2.29231 5.22234 2.29218 5.22234 2.29205C 5.22234 2.29192 5.22234 2.29179 5.22234 2.29166C 5.22234 2.29153 5.22234 2.2914 5.22234 2.29127C 5.22234 2.29114 5.22234 2.29101 5.22234 2.29088C 5.22234 2.29074 5.22234 2.29061 5.22234 2.29048C 5.22234 2.29035 5.22234 2.29022 5.22234 2.29009C 5.22234 2.28996 5.22234 2.28983 5.22234 2.2897C 5.22234 2.28957 5.22234 2.28944 5.22234 2.28931C 5.22234 2.28918 5.22234 2.28904 5.22234 2.28891C 5.22234 2.28878 5.22234 2.28865 5.22234 2.28852C 5.22234 2.28839 5.22234 2.28826 5.22234 2.28813C 5.22234 2.288 5.22234 2.28787 5.22234 2.28773C 5.22234 2.2876 5.22234 2.28747 5.22234 2.28734C 5.22234 2.28721 5.22234 2.28708 5.22234 2.28695C 5.22234 2.28682 5.22234 2.28668 5.22234 2.28655C 5.22234 2.28642 5.22234 2.28629 5.22234 2.28616C 5.22234 2.28603 5.22234 2.2859 5.22234 2.28576C 5.22234 2.28563 5.22234 2.2855 5.22234 2.28537C 5.22234 2.28524 5.22234 2.28511 5.22234 2.28497C 5.22234 2.28484 5.22234 2.28471 5.22234 2.28458C 5.22234 2.28445 5.22234 2.28432 5.22234 2.28418C 5.22234 2.28405 5.22234 2.28392 5.22234 2.28379C 5.22234 2.28366 5.22234 2.28352 5.22234 2.28339C 5.22234 2.28326 5.22234 2.28313 5.22234 2.283C 5.22234 2.28286 5.22234 2.28273 5.22234 2.2826C 5.22234 2.28247 5.22234 2.28234 5.22234 2.2822C 5.22234 2.28207 5.22234 2.28194 5.22234 2.28181C 5.22234 2.28167 5.22234 2.28154 5.22234 2.28141C 5.22234 2.28128 5.22234 2.28115 5.22234 2.28101C 5.22234 2.28088 5.22234 2.28075 5.22234 2.28062C 5.22234 2.28048 5.22234 2.28035 5.22234 2.28022C 5.22234 2.28008 5.22234 2.27995 5.22234 2.27982C 5.22234 2.27969 5.22234 2.27955 5.22234 2.27942C 5.22234 2.27929 5.22234 2.27916 5.22234 2.27902C 5.22234 2.27889 5.22234 2.27876 5.22234 2.27862C 5.22234 2.27849 5.22234 2.27836 5.22234 2.27822C 5.22234 2.27809 5.22234 2.27796 5.22234 2.27783C 5.22234 2.27769 5.22234 2.27756 5.22234 2.27743C 5.22234 2.27729 5.22234 2.27716 5.22234 2.27703C 5.22234 2.27689 5.22234 2.27676 5.22234 2.27663C 5.22234 2.27649 5.22234 2.27636 5.22234 2.27623C 5.22234 2.27609 5.22234 2.27596 5.22234 2.27583C 5.22234 2.27569 5.22234 2.27556 5.22234 2.27542C 5.22234 2.27529 5.22234 2.27516 5.22234 2.27502C 5.22234 2.27489 5.22234 2.27476 5.22234 2.27462C 5.22234 2.27449 5.22234 2.27435 5.22234 2.27422C 5.22234 2.27409 5.22234 2.27395 5.22234 2.27382C 5.22234 2.27368 5.22234 2.27355 5.22234 2.27342C 5.22234 2.27328 5.22234 2.27315 5.22234 2.27301C 5.22234 2.27288 5.22234 2.27275 5.22234 2.27261C 5.22234 2.27248 5.22234 2.27234 5.22234 2.27221C 5.22234 2.27207 5.22234 2.27194 5.22234 2.27181C 5.22234 2.27167 5.22234 2.27154 5.22234 2.2714C 5.22234 2.27127 5.22234 2.27113 5.22234 2.271C 5.22234 2.27086 5.22234 2.27073 5.22234 2.27059C 5.22234 2.27046 5.22234 2.27032 5.22234 2.27019C 5.22234 2.27005 5.22234 2.26992 5.22234 2.26978C 5.22234 2.26965 5.22234 2.26951 5.22234 2.26938C 5.22234 2.26924 5.22234 2.26911 5.22234 2.26897C 5.22234 2.26884 5.22234 2.2687 5.22234 2.26857C 5.22234 2.26843 5.22234 2.2683 5.22234 2.26816C 5.22234 2.26803 5.22234 2.26789 5.22234 2.26776C 5.22234 2.26762 5.22234 2.26749 5.22234 2.26735C 5.22234 2.26722 5.22234 2.26708 5.22234 2.26694C 5.22234 2.26681 5.22234 2.26667 5.22234 2.26654C 5.22234 2.2664 5.22234 2.26627 5.22234 2.26613C 5.22234 2.26599 5.22234 2.26586 5.22234 2.26572C 5.22234 2.26559 5.22234 2.26545 5.22234 2.26531C 5.22234 2.26518 5.22234 2.26504 5.22234 2.26491C 5.22234 2.26477 5.22234 2.26463 5.22234 2.2645C 5.22234 2.26436 5.22234 2.26423 5.22234 2.26409C 5.22234 2.26395 5.22234 2.26382 5.22234 2.26368C 5.22234 2.26354 5.22234 2.26341 5.22234 2.26327C 5.22234 2.26313 5.22234 2.263 5.22234 2.26286C 5.22234 2.26272 5.22234 2.26259 5.22234 2.26245C 5.22234 2.26231 5.22234 2.26218 5.22234 2.26204C 5.22234 2.2619 5.22234 2.26177 5.22234 2.26163C 5.22234 2.26149 5.22234 2.26136 5.22234 2.26122C 5.22234 2.26108 5.22234 2.26094 5.22234 2.26081C 5.22234 2.26067 5.22234 2.26053 5.22234 2.2604C 5.22234 2.26026 5.22234 2.26012 5.22234 2.25998C 5.22234 2.25985 5.22234 2.25971 5.22234 2.25957C 5.22234 2.25943 5.22234 2.2593 5.22234 2.25916C 5.22234 2.25902 5.22234 2.25888 5.22234 2.25875C 5.22234 2.25861 5.22234 2.25847 5.22234 2.25833C 5.22234 2.2582 5.22234 2.25806 5.22234 2.25792C 5.22234 2.25778 5.22234 2.25764 5.22234 2.25751C 5.22234 2.25737 5.22234 2.25723 5.22234 2.25709C 5.22234 2.25695 5.22234 2.25682 5.22234 2.25668C 5.22234 2.25654 5.22234 2.2564 5.22234 2.25626C 5.22234 2.25612 5.22234 2.25599 5.22234 2.25585C 5.22234 2.25571 5.22234 2.25557 5.22234 2.25543C 5.22234 2.25529 5.22234 2.25515 5.22234 2.25502C 5.22234 2.25488 5.22234 2.25474 5.22234 2.2546C 5.22234 2.25446 5.22234 2.25432 5.22234 2.25418C 5.22234 2.25404 5.22234 2.25391 5.22234 2.25377C 5.22234 2.25363 5.22234 2.25349 5.22234 2.25335C 5.22234 2.25321 5.22234 2.25307 5.22234 2.25293C 5.22234 2.25279 5.22234 2.25265 5.22234 2.25251C 5.22234 2.25237 5.22234 2.25224 5.22234 2.2521C 5.22234 2.25196 5.22234 2.25182 5.22234 2.25168C 5.22234 2.25154 5.22234 2.2514 5.22234 2.25126C 5.22234 2.25112 5.22234 2.25098 5.22234 2.25084C 5.22234 2.2507 5.22234 2.25056 5.22234 2.25042C 5.22234 2.25028 5.22234 2.25014 5.22234 2.25C 5.22234 2.24986 5.22234 2.24972 5.22234 2.24958C 5.22234 2.24944 5.22234 2.2493 5.22234 2.24916C 5.22234 2.24902 5.22234 2.24888 5.22234 2.24874C 5.22234 2.2486 5.22234 2.24846 5.22234 2.24832C 5.22234 2.24818 5.22234 2.24804 5.22234 2.24789C 5.22234 2.24775 5.22234 2.24761 5.22234 2.24747C 5.22234 2.24733 5.22234 2.24719 5.22234 2.24705C 5.22234 2.24691 5.22234 2.24677 5.22234 2.24663C 5.22234 2.24649 5.22234 2.24635 5.22234 2.2462C 5.22234 2.24606 5.22234 2.24592 5.22234 2.24578C 5.22234 2.24564 5.22234 2.2455 5.22234 2.24536C 5.22234 2.24522 5.22234 2.24507 5.22234 2.24493C 5.22234 2.24479 5.22234 2.24465 5.22234 2.24451C 5.22234 2.24437 5.22234 2.24422 5.22234 2.24408C 5.22234 2.24394 5.22234 2.2438 5.22234 2.24366C 5.22234 2.24352 5.22234 2.24337 5.22234 2.24323C 5.22234 2.24309 5.22234 2.24295 5.22234 2.24281C 5.22234 2.24266 5.22234 2.24252 5.22234 2.24238C 5.22234 2.24224 5.22234 2.24209 5.22234 2.24195C 5.22234 2.24181 5.22234 2.24167 5.22234 2.24152C 5.22234 2.24138 5.22234 2.24124 5.22234 2.2411C 5.22234 2.24095 5.22234 2.24081 5.22234 2.24067C 5.22234 2.24053 5.22234 2.24038 5.22234 2.24024C 5.22234 2.2401 5.22234 2.23995 5.22234 2.23981C 5.22234 2.23967 5.22234 2.23953 5.22234 2.23938C 5.22234 2.23924 5.22234 2.2391 5.22234 2.23895C 5.22234 2.23881 5.22234 2.23867 5.22234 2.23852C 5.22234 2.23838 5.22234 2.23824 5.22234 2.23809C 5.22234 2.23795 5.22234 2.23781 5.22234 2.23766C 5.22234 2.23752 5.22234 2.23737 5.22234 2.23723C 5.22234 2.23709 5.22234 2.23694 5.22234 2.2368C 5.22234 2.23666 5.22234 2.23651 5.22234 2.23637C 5.22234 2.23622 5.22234 2.23608 5.22234 2.23593C 5.22234 2.23579 5.22234 2.23565 5.22234 2.2355C 5.22234 2.23536 5.22234 2.23521 5.22234 2.23507C 5.22234 2.23492 5.22234 2.23478 5.22234 2.23464C 5.22234 2.23449 5.22234 2.23435 5.22234 2.2342C 5.22234 2.23406 5.22234 2.23391 5.22234 2.23377C 5.22234 2.23362 5.22234 2.23348 5.22234 2.23333C 5.22234 2.23319 5.22234 2.23304 5.22234 2.2329C 5.22234 2.23275 5.22234 2.23261 5.22234 2.23246C 5.22234 2.23232 5.22234 2.23217 5.22234 2.23203C 5.22234 2.23188 5.22234 2.23173 5.22234 2.23159C 5.22234 2.23144 5.22234 2.2313 5.22234 2.23115C 5.22234 2.23101 5.22234 2.23086 5.22234 2.23071C 5.22234 2.23057 5.22234 2.23042 5.22234 2.23028C 5.22234 2.23013 5.22234 2.22998 5.22234 2.22984C 5.22234 2.22969 5.22234 2.22955 5.22234 2.2294C 5.22234 2.22925 5.22234 2.22911 5.22234 2.22896C 5.22234 2.22882 5.22234 2.22867 5.22234 2.22852C 5.22234 2.22838 5.22234 2.22823 5.22234 2.22808C 5.22234 2.22794 5.22234 2.22779 5.22234 2.22764C 5.22234 2.2275 5.22234 2.22735 5.22234 2.2272C 5.22234 2.22705 5.22234 2.22691 5.22234 2.22676C 5.22234 2.22661 5.22234 2.22647 5.22234 2.22632C 5.22234 2.22617 5.22234 2.22602 5.22234 2.22588C 5.22234 2.22573 5.22234 2.22558 5.22234 2.22543C 5.22234 2.22529 5.22234 2.22514 5.22234 2.22499C 5.22234 2.22484 5.22234 2.2247 5.22234 2.22455C 5.22234 2.2244 5.22234 2.22425 5.22234 2.2241C 5.22234 2.22396 5.22234 2.22381 5.22234 2.22366C 5.22234 2.22351 5.22234 2.22336 5.22234 2.22322C 5.22234 2.22307 5.22234 2.22292 5.22234 2.22277C 5.22234 2.22262 5.22234 2.22247 5.22234 2.22233C 5.22234 2.22218 5.22234 2.22203 5.22234 2.22188C 5.22234 2.22173 5.22234 2.22158 5.22234 2.22143C 5.22234 2.22128 5.22234 2.22114 5.22234 2.22099C 5.22234 2.22084 5.22234 2.22069 5.22234 2.22054C 5.22234 2.22039 5.22234 2.22024 5.22234 2.22009C 5.22234 2.21994 5.22234 2.21979 5.22234 2.21964C 5.22234 2.21949 5.22234 2.21934 5.22234 2.21919C 5.22234 2.21905 5.22234 2.2189 5.22234 2.21875C 5.22234 2.2186 5.22234 2.21845 5.22234 2.2183C 5.22234 2.21815 5.22234 2.218 5.22234 2.21785C 5.22234 2.2177 5.22234 2.21755 5.22234 2.2174C 5.22234 2.21725 5.22234 2.2171 5.22234 2.21695C 5.22234 2.21679 5.22234 2.21664 5.22234 2.21649C 5.22234 2.21634 5.22234 2.21619 5.22234 2.21604C 5.22234 2.21589 5.22234 2.21574 5.22234 2.21559C 5.22234 2.21544 5.22234 2.21529 5.22234 2.21514C 5.22234 2.21499 5.22234 2.21483 5.22234 2.21468C 5.22234 2.21453 5.22234 2.21438 5.22234 2.21423C 5.22234 2.21408 5.22234 2.21393 5.22234 2.21378C 5.22234 2.21362 5.22234 2.21347 5.22234 2.21332C 5.22234 2.21317 5.22234 2.21302 5.22234 2.21287C 5.22234 2.21271 5.22234 2.21256 5.22234 2.21241C 5.22234 2.21226 5.22234 2.21211 5.22234 2.21195C 5.22234 2.2118 5.22234 2.21165 5.22234 2.2115C 5.22234 2.21135 5.22234 2.21119 5.22234 2.21104C 5.22234 2.21089 5.22234 2.21074 5.22234 2.21058C 5.22234 2.21043 5.22234 2.21028 5.22234 2.21013C 5.22234 2.20997 5.22234 2.20982 5.22234 2.20967C 5.22234 2.20951 5.22234 2.20936 5.22234 2.20921C 5.22234 2.20905 5.22234 2.2089 5.22234 2.20875C 5.22234 2.2086 5.22234 2.20844 5.22234 2.20829C 5.22234 2.20814 5.22234 2.20798 5.22234 2.20783C 5.22234 2.20767 5.22234 2.20752 5.22234 2.20737C 5.22234 2.20721 5.22234 2.20706 5.22234 2.20691C 5.22234 2.20675 5.22234 2.2066 5.22234 2.20644C 5.22234 2.20629 5.22234 2.20614 5.22234 2.20598C 5.22234 2.20583 5.22234 2.20567 5.22234 2.20552C 5.22234 2.20536 5.22234 2.20521 5.22234 2.20506C 5.22234 2.2049 5.22234 2.20475 5.22234 2.20459C 5.22234 2.20444 5.22234 2.20428 5.22234 2.20413C 5.22234 2.20397 5.22234 2.20382 5.22234 2.20366C 5.22234 2.20351 5.22234 2.20335 5.22234 2.2032C 5.22234 2.20304 5.22234 2.20289 5.22234 2.20273C 5.22234 2.20258 5.22234 2.20242 5.22234 2.20226C 5.22234 2.20211 5.22234 2.20195 5.22234 2.2018C 5.22234 2.20164 5.22234 2.20149 5.22234 2.20133C 5.22234 2.20117 5.22234 2.20102 5.22234 2.20086C 5.22234 2.20071 5.22234 2.20055 5.22234 2.20039C 5.22234 2.20024 5.22234 2.20008 5.22234 2.19992C 5.22234 2.19977 5.22234 2.19961 5.22234 2.19946C 5.22234 2.1993 5.22234 2.19914 5.22234 2.19899C 5.22234 2.19883 5.22234 2.19867 5.22234 2.19851C 5.22234 2.19836 5.22234 2.1982 5.22234 2.19804C 5.22234 2.19789 5.22234 2.19773 5.22234 2.19757C 5.22234 2.19741 5.22234 2.19726 5.22234 2.1971C 5.22234 2.19694 5.22234 2.19678 5.22234 2.19663C 5.22234 2.19647 5.22234 2.19631 5.22234 2.19615C 5.22234 2.196 5.22234 2.19584 5.22234 2.19568C 5.22234 2.19552 5.22234 2.19536 5.22234 2.19521C 5.22234 2.19505 5.22234 2.19489 5.22234 2.19473C 5.22234 2.19457 5.22234 2.19441 5.22234 2.19426C 5.22234 2.1941 5.22234 2.19394 5.22234 2.19378C 5.22234 2.19362 5.22234 2.19346 5.22234 2.1933C 5.22234 2.19315 5.22234 2.19299 5.22234 2.19283C 5.22234 2.19267 5.22234 2.19251 5.22234 2.19235C 5.22234 2.19219 5.22234 2.19203 5.22234 2.19187C 5.22234 2.19171 5.22234 2.19155 5.22234 2.19139C 5.22234 2.19123 5.22234 2.19107 5.22234 2.19091C 5.22234 2.19075 5.22234 2.19059 5.22234 2.19043C 5.22234 2.19027 5.22234 2.19011 5.22234 2.18995C 5.22234 2.18979 5.22234 2.18963 5.22234 2.18947C 5.22234 2.18931 5.22234 2.18915 5.22234 2.18899C 5.22234 2.18883 5.22234 2.18867 5.22234 2.18851C 5.22234 2.18835 5.22234 2.18819 5.22234 2.18803C 5.22234 2.18787 5.22234 2.18771 5.22234 2.18755C 5.22234 2.18739 5.22234 2.18722 5.22234 2.18706C 5.22234 2.1869 5.22234 2.18674 5.22234 2.18658C 5.22234 2.18642 5.22234 2.18626 5.22234 2.18609C 5.22234 2.18593 5.22234 2.18577 5.22234 2.18561C 5.22234 2.18545 5.22234 2.18529 5.22234 2.18512C 5.22234 2.18496 5.22234 2.1848 5.22234 2.18464C 5.22234 2.18448 5.22234 2.18431 5.22234 2.18415C 5.22234 2.18399 5.22234 2.18383 5.22234 2.18366C 5.22234 2.1835 5.22234 2.18334 5.22234 2.18318C 5.22234 2.18301 5.22234 2.18285 5.22234 2.18269C 5.22234 2.18252 5.22234 2.18236 5.22234 2.1822C 5.22234 2.18203 5.22234 2.18187 5.22234 2.18171C 5.22234 2.18155 5.22234 2.18138 5.22234 2.18122C 5.22234 2.18105 5.22234 2.18089 5.22234 2.18073C 5.22234 2.18056 5.22234 2.1804 5.22234 2.18024C 5.22234 2.18007 5.22234 2.17991 5.22234 2.17974C 5.22234 2.17958 5.22234 2.17942 5.22234 2.17925C 5.22234 2.17909 5.22234 2.17892 5.22234 2.17876C 5.22234 2.17859 5.22234 2.17843 5.22234 2.17827C 5.22234 2.1781 5.22234 2.17794 5.22234 2.17777C 5.22234 2.17761 5.22234 2.17744 5.22234 2.17728C 5.22234 2.17711 5.22234 2.17695 5.22234 2.17678C 5.22234 2.17662 5.22234 2.17645 5.22234 2.17629C 5.22234 2.17612 5.22234 2.17595 5.22234 2.17579C 5.22234 2.17562 5.22234 2.17546 5.22234 2.17529C 5.22234 2.17513 5.22234 2.17496 5.22234 2.17479C 5.22234 2.17463 5.22234 2.17446 5.22234 2.1743C 5.22234 2.17413 5.22234 2.17396 5.22234 2.1738C 5.22234 2.17363 5.22234 2.17346 5.22234 2.1733C 5.22234 2.17313 5.22234 2.17296 5.22234 2.1728C 5.22234 2.17263 5.22234 2.17246 5.22234 2.1723C 5.22234 2.17213 5.22234 2.17196 5.22234 2.1718C 5.22234 2.17163 5.22234 2.17146 5.22234 2.17129C 5.22234 2.17113 5.22234 2.17096 5.22234 2.17079C 5.22234 2.17062 5.22234 2.17046 5.22234 2.17029C 5.22234 2.17012 5.22234 2.16995 5.22234 2.16978C 5.22234 2.16962 5.22234 2.16945 5.22234 2.16928C 5.22234 2.16911 5.22234 2.16894 5.22234 2.16877C 5.22234 2.16861 5.22234 2.16844 5.22234 2.16827C 5.22234 2.1681 5.22234 2.16793 5.22234 2.16776C 5.22234 2.16759 5.22234 2.16743 5.22234 2.16726C 5.22234 2.16709 5.22234 2.16692 5.22234 2.16675C 5.22234 2.16658 5.22234 2.16641 5.22234 2.16624C 5.22234 2.16607 5.22234 2.1659 5.22234 2.16573C 5.22234 2.16556 5.22234 2.16539 5.22234 2.16522C 5.22234 2.16505 5.22234 2.16488 5.22234 2.16471C 5.22234 2.16454 5.22234 2.16437 5.22234 2.1642C 5.22234 2.16403 5.22234 2.16386 5.22234 2.16369C 5.22234 2.16352 5.22234 2.16335 5.22234 2.16318C 5.22234 2.16301 5.22234 2.16284 5.22234 2.16267C 5.22234 2.1625 5.22234 2.16233 5.22234 2.16216C 5.22234 2.16198 5.22234 2.16181 5.22234 2.16164C 5.22234 2.16147 5.22234 2.1613 5.22234 2.16113C 5.22234 2.16096 5.22234 2.16078 5.22234 2.16061C 5.22234 2.16044 5.22234 2.16027 5.22234 2.1601C 5.22234 2.15993 5.22234 2.15975 5.22234 2.15958C 5.22234 2.15941 5.22234 2.15924 5.22234 2.15907C 5.22234 2.15889 5.22234 2.15872 5.22234 2.15855C 5.22234 2.15838 5.22234 2.1582 5.22234 2.15803C 5.22234 2.15786 5.22234 2.15768 5.22234 2.15751C 5.22234 2.15734 5.22234 2.15717 5.22234 2.15699C 5.22234 2.15682 5.22234 2.15665 5.22234 2.15647C 5.22234 2.1563 5.22234 2.15613 5.22234 2.15595C 5.22234 2.15578 5.22234 2.1556 5.22234 2.15543C 5.22234 2.15526 5.22234 2.15508 5.22234 2.15491C 5.22234 2.15473 5.22234 2.15456 5.22234 2.15439C 5.22234 2.15421 5.22234 2.15404 5.22234 2.15386C 5.22234 2.15369 5.22234 2.15351 5.22234 2.15334C 5.22234 2.15316 5.22234 2.15299 5.22234 2.15282C 5.22234 2.15264 5.22234 2.15247 5.22234 2.15229C 5.22234 2.15212 5.22234 2.15194 5.22234 2.15176C 5.22234 2.15159 5.22234 2.15141 5.22234 2.15124C 5.22234 2.15106 5.22234 2.15089 5.22234 2.15071C 5.22234 2.15054 5.22234 2.15036 5.22234 2.15018C 5.22234 2.15001 5.22234 2.14983 5.22234 2.14966C 5.22234 2.14948 5.22234 2.1493 5.22234 2.14913C 5.22234 2.14895 5.22234 2.14877 5.22234 2.1486C 5.22234 2.14842 5.22234 2.14824 5.22234 2.14807C 5.22234 2.14789 5.22234 2.14771 5.22234 2.14754C 5.22234 2.14736 5.22234 2.14718 5.22234 2.147C 5.22234 2.14683 5.22234 2.14665 5.22234 2.14647C 5.22234 2.14629 5.22234 2.14612 5.22234 2.14594C 5.22234 2.14576 5.22234 2.14558 5.22234 2.1454C 5.22234 2.14523 5.22234 2.14505 5.22234 2.14487C 5.22234 2.14469 5.22234 2.14451 5.22234 2.14434C 5.22234 2.14416 5.22234 2.14398 5.22234 2.1438C 5.22234 2.14362 5.22234 2.14344 5.22234 2.14326C 5.22234 2.14308 5.22234 2.14291 5.22234 2.14273C 5.22234 2.14255 5.22234 2.14237 5.22234 2.14219C 5.22234 2.14201 5.22234 2.14183 5.22234 2.14165C 5.22234 2.14147 5.22234 2.14129 5.22234 2.14111C 5.22234 2.14093 5.22234 2.14075 5.22234 2.14057C 5.22234 2.14039 5.22234 2.14021 5.22234 2.14003C 5.22234 2.13985 5.22234 2.13967 5.22234 2.13949C 5.22234 2.13931 5.22234 2.13913 5.22234 2.13895C 5.22234 2.13877 5.22234 2.13859 5.22234 2.13841C 5.22234 2.13822 5.22234 2.13804 5.22234 2.13786C 5.22234 2.13768 5.22234 2.1375 5.22234 2.13732C 5.22234 2.13714 5.22234 2.13696 5.22234 2.13677C 5.22234 2.13659 5.22234 2.13641 5.22234 2.13623C 5.22234 2.13605 5.22234 2.13586 5.22234 2.13568C 5.22234 2.1355 5.22234 2.13532 5.22234 2.13514C 5.22234 2.13495 5.22234 2.13477 5.22234 2.13459C 5.22234 2.13441 5.22234 2.13422 5.22234 2.13404C 5.22234 2.13386 5.22234 2.13367 5.22234 2.13349C 5.22234 2.13331 5.22234 2.13313 5.22234 2.13294C 5.22234 2.13276 5.22234 2.13258 5.22234 2.13239C 5.22234 2.13221 5.22234 2.13203 5.22234 2.13184C 5.22234 2.13166 5.22234 2.13147 5.22234 2.13129C 5.22234 2.13111 5.22234 2.13092 5.22234 2.13074C 5.22234 2.13055 5.22234 2.13037 5.22234 2.13018C 5.22234 2.13 5.22234 2.12982 5.22234 2.12963C 5.22234 2.12945 5.22234 2.12926 5.22234 2.12908C 5.22234 2.12889 5.22234 2.12871 5.22234 2.12852C 5.22234 2.12834 5.22234 2.12815 5.22234 2.12796C 5.22234 2.12778 5.22234 2.12759 5.22234 2.12741C 5.22234 2.12722 5.22234 2.12704 5.22234 2.12685C 5.22234 2.12667 5.22234 2.12648 5.22234 2.12629C 5.22234 2.12611 5.22234 2.12592 5.22234 2.12573C 5.22234 2.12555 5.22234 2.12536 5.22234 2.12517C 5.22234 2.12499 5.22234 2.1248 5.22234 2.12461C 5.22234 2.12443 5.22234 2.12424 5.22234 2.12405C 5.22234 2.12387 5.22234 2.12368 5.22234 2.12349C 5.22234 2.1233 5.22234 2.12312 5.22234 2.12293C 5.22234 2.12274 5.22234 2.12255 5.22234 2.12237C 5.22234 2.12218 5.22234 2.12199 5.22234 2.1218C 5.22234 2.12161 5.22234 2.12143 5.22234 2.12124L 4.22234 2.12124ZM 4.22234 2.34622C 4.22234 2.36153 4.22144 2.33443 4.22774 2.30231C 4.23399 2.27041 4.24288 2.25269 4.24182 2.25485L 5.13989 2.6947C 5.17032 2.63259 5.19495 2.56666 5.20908 2.49458C 5.22324 2.42228 5.22234 2.36304 5.22234 2.34622L 4.22234 2.34622ZM 4.19086 2.47478L 4.19086 2.53906L 5.19086 2.53906L 5.19086 2.47478L 4.19086 2.47478ZM 4.19086 2.53906L 4.19086 2.5712L 5.19086 2.5712L 5.19086 2.53906L 4.19086 2.53906ZM 4.21555 2.41601C 4.18932 2.49635 4.17655 2.56358 4.1687 2.60363C 4.16081 2.64393 4.15784 2.65705 4.15259 2.67312L 5.1032 2.98351C 5.12943 2.90317 5.1422 2.83593 5.15005 2.79588C 5.15794 2.75559 5.16091 2.74247 5.16616 2.72639L 4.21555 2.41601ZM 4.13722 2.73219C 4.12631 2.78791 4.10993 2.84393 4.08343 2.93863C 4.05913 3.02548 4.029 3.13641 4.0085 3.262L 4.99543 3.42312C 5.00641 3.35586 5.02351 3.29003 5.04643 3.20814C 5.06715 3.1341 5.098 3.02942 5.11857 2.92444L 4.13722 2.73219ZM 4.01891 3.21351C 3.96931 3.39917 3.92823 3.57547 3.88911 3.74323C 3.84952 3.91294 3.8119 4.07411 3.76705 4.24199L 4.73317 4.50008C 4.78277 4.31443 4.82384 4.13812 4.86297 3.97036C 4.90255 3.80065 4.94018 3.63949 4.98503 3.4716L 4.01891 3.21351ZM 3.76705 4.24199C 3.71745 4.42765 3.67637 4.60395 3.63725 4.77171C 3.59767 4.94142 3.56004 5.10258 3.51519 5.27047L 4.48131 5.52856C 4.53091 5.34291 4.57199 5.1666 4.61111 4.99884C 4.65069 4.82913 4.68832 4.66797 4.73317 4.50008L 3.76705 4.24199ZM 3.52294 5.24432C 3.49671 5.32467 3.48394 5.3919 3.47609 5.43195C 3.4682 5.47225 3.46523 5.48537 3.45998 5.50144L 4.41059 5.81183C 4.43682 5.73148 4.44959 5.66425 4.45744 5.6242C 4.46533 5.5839 4.46831 5.57078 4.47355 5.55471L 3.52294 5.24432ZM 3.44964 5.5377L 3.41815 5.66626L 4.38945 5.90413L 4.42093 5.77557L 3.44964 5.5377ZM 3.4038 5.7852L 3.4038 5.84948L 4.4038 5.84948L 4.4038 5.7852L 3.4038 5.7852ZM 3.4038 5.84948L 3.4038 5.91375L 4.4038 5.91375L 4.4038 5.84948L 3.4038 5.84948ZM 3.4038 5.91375L 3.4038 5.9459L 4.4038 5.9459L 4.4038 5.91375L 3.4038 5.91375ZM 3.45476 5.72599L 3.42328 5.79027L 4.32137 6.23008L 4.35285 6.1658L 3.45476 5.72599ZM 3.37232 6.01018C 3.37232 6.02727 3.37178 6.00529 3.37421 5.9805C 3.37795 5.94237 3.38865 5.88505 3.41936 5.82236C 3.44606 5.76787 3.47664 5.73305 3.48399 5.72471C 3.49028 5.71758 3.49526 5.71272 3.48365 5.72457L 4.19803 6.42433C 4.20216 6.42012 4.21895 6.40321 4.23409 6.38603C 4.25029 6.36765 4.28678 6.32479 4.31741 6.26227C 4.35205 6.19154 4.36473 6.12619 4.36945 6.07802C 4.37149 6.0572 4.37198 6.04 4.37216 6.03065C 4.37234 6.02162 4.37232 6.01281 4.37232 6.01018L 3.37232 6.01018ZM 3.3918 5.85453C 3.37413 5.89061 3.27787 6.06472 3.27787 6.26729L 4.27787 6.26729C 4.27787 6.29206 4.27484 6.31145 4.27219 6.32384C 4.26959 6.33596 4.26702 6.34292 4.26689 6.34327C 4.26679 6.34354 4.26801 6.34022 4.27211 6.3313C 4.27644 6.32187 4.28152 6.31143 4.28987 6.29438L 3.3918 5.85453ZM 3.32884 6.04737C 3.32806 6.04895 3.32777 6.05012 3.31201 6.07426C 3.29629 6.09833 3.2651 6.14537 3.23439 6.20807L 4.13246 6.64792C 4.13324 6.64634 4.13353 6.64517 4.14929 6.62103C 4.16501 6.59696 4.1962 6.54992 4.22691 6.48722L 3.32884 6.04737ZM 3.25236 6.17465L 3.15792 6.33535L 4.02004 6.84204L 4.11449 6.68134L 3.25236 6.17465ZM 3.18603 6.29267C 2.97365 6.58176 2.66696 6.77185 2.37244 6.84124L 2.60175 7.81459C 3.12577 7.69114 3.63763 7.36699 3.99193 6.88472L 3.18603 6.29267ZM 2.34709 6.84792C 2.21005 6.88789 2.09882 6.88858 1.97281 6.86714L 1.80507 7.85297C 2.05684 7.89581 2.3234 7.8965 2.62711 7.80791L 2.34709 6.84792ZM 1.88894 6.86005C 1.89114 6.86005 1.88588 6.86038 1.83114 6.85107C 1.79144 6.84431 1.70225 6.82791 1.6056 6.82791L 1.6056 7.82791C 1.60339 7.82791 1.60865 7.82758 1.6634 7.8369C 1.7031 7.84365 1.79228 7.86005 1.88894 7.86005L 1.88894 6.86005ZM 1.83292 6.88258C 1.74459 6.83749 1.66042 6.81784 1.6348 6.8113C 1.59745 6.80177 1.61866 6.80535 1.64402 6.8183L 1.18938 7.70897C 1.27771 7.75406 1.36189 7.77371 1.3875 7.78024C 1.42485 7.78978 1.40364 7.7862 1.37828 7.77325L 1.83292 6.88258ZM 1.54035 6.77916C 1.04024 6.65152 0.690046 6.55616 0.466104 6.4931C 0.354142 6.46156 0.273774 6.43811 0.222038 6.42275C 0.196171 6.41507 0.177468 6.40941 0.165557 6.40577C 0.159602 6.40395 0.155345 6.40264 0.152741 6.40183C 0.151439 6.40143 0.15055 6.40115 0.150069 6.401C 0.149828 6.40093 0.14969 6.40089 0.149652 6.40087C 0.149633 6.40087 0.14964 6.40087 0.149671 6.40088C 0.149687 6.40089 0.149709 6.40089 0.149738 6.4009C 0.149752 6.40091 0.149778 6.40091 0.149785 6.40092C 0.149813 6.40093 0.149842 6.40093 8.9478e-15 6.87795C -0.149842 7.35497 -0.149809 7.35498 -0.149776 7.35499C -0.149762 7.355 -0.149727 7.35501 -0.1497 7.35502C -0.149647 7.35503 -0.149587 7.35505 -0.149521 7.35507C -0.149389 7.35511 -0.149233 7.35516 -0.149051 7.35522C -0.148688 7.35533 -0.148224 7.35548 -0.147659 7.35566C -0.146531 7.35601 -0.144998 7.35648 -0.143057 7.35709C -0.139174 7.35829 -0.133653 7.35999 -0.12645 7.36219C -0.112044 7.36659 -0.0909026 7.37298 -0.0626589 7.38137C -0.00617436 7.39814 0.0787393 7.4229 0.195024 7.45565C 0.427576 7.52114 0.785735 7.61862 1.29305 7.7481L 1.54035 6.77916Z"/>
        <path id="path1_stroke" d="M 2.41142 0.895655C 2.48007 0.628181 2.31889 0.355702 2.05141 0.287055C 1.78394 0.218409 1.51146 0.37959 1.44281 0.647064L 2.41142 0.895655ZM 0.0381822 8.13141L -0.446122 8.00712C -0.448939 8.01809 -0.451382 8.02916 -0.453447 8.0403L 0.0381822 8.13141ZM 1.73822 10.7026L 1.83654 10.2124L 1.83304 10.2117L 1.73822 10.7026ZM 7.02725 11.7632L 6.92894 12.2535L 6.93243 12.2542L 7.02725 11.7632ZM 9.54583 10.0277L 10.0375 10.1188C 10.0389 10.1112 10.0401 10.1037 10.0411 10.0961L 9.54583 10.0277ZM 11.4263 0.0684198C 11.4641 -0.205125 11.273 -0.457509 10.9995 -0.495297C 10.7259 -0.533084 10.4735 -0.341965 10.4358 -0.0684203L 11.4263 0.0684198ZM 1.44281 0.647064L -0.446122 8.00712L 0.522487 8.25571L 2.41142 0.895655L 1.44281 0.647064ZM -0.453447 8.0403C -0.721121 9.48471 0.194287 10.9137 1.64341 11.1935L 1.83304 10.2117C 0.952471 10.0416 0.356733 9.15648 0.529812 8.22252L -0.453447 8.0403ZM 1.63991 11.1929L 6.92894 12.2535L 7.12556 11.273L 1.83653 10.2124L 1.63991 11.1929ZM 6.93243 12.2542C 8.37282 12.5324 9.76705 11.5779 10.0375 10.1188L 9.0542 9.93656C 8.88386 10.8558 8.01136 11.4441 7.12207 11.2723L 6.93243 12.2542ZM 10.0411 10.0961L 11.4263 0.0684198L 10.4358 -0.0684203L 9.05053 9.95925L 10.0411 10.0961Z"/>
        <path id="path2_stroke" d="M 1.68737 0.0942151C 1.7394 -0.176981 1.56174 -0.43901 1.29054 -0.491044C 1.01935 -0.543078 0.757317 -0.365412 0.705284 -0.094216L 1.68737 0.0942151ZM -0.491044 6.14094C -0.543078 6.41213 -0.365412 6.67416 -0.0942165 6.7262C 0.176979 6.77823 0.439008 6.60057 0.491042 6.32937L -0.491044 6.14094ZM 0.705284 -0.094216L -0.491044 6.14094L 0.491042 6.32937L 1.68737 0.0942151L 0.705284 -0.094216Z"/>
        <path id="path3_stroke" d="M 12.5576 3.67074L 12.0657 3.58041L 12.0641 3.59018L 12.5576 3.67074ZM 11.8335 2.57798L 11.7099 3.06245C 11.7197 3.06496 11.7296 3.06717 11.7395 3.06907L 11.8335 2.57798ZM 11.4872 2.57798L 10.9884 2.61169C 10.9988 2.76667 11.0807 2.90798 11.21 2.9941C 11.3393 3.08022 11.5012 3.10137 11.6483 3.05133L 11.4872 2.57798ZM 9.81866 0.649586L 9.91869 0.159657L 9.91266 0.158502L 9.81866 0.649586ZM 8.37047 0.906706L 8.1093 1.33308C 8.27132 1.43232 8.47558 1.43116 8.63645 1.33009L 8.37047 0.906706ZM 6.76488 0.263907L 6.86994 -0.224957L 6.8649 -0.225986L 6.76488 0.263907ZM 4.15184 0.521026L 3.81584 0.891297C 3.96736 1.02879 4.18736 1.0601 4.37122 0.970331L 4.15184 0.521026ZM 3.14441 0.0389265L 3.05199 0.530387L 3.06054 0.531842L 3.14441 0.0389265ZM 0.562861 1.80663L 1.05145 1.91298L 1.05256 1.90761L 0.562861 1.80663ZM 0.562861 2.61012L 0.87378 3.0017C 1.02672 2.88026 1.09496 2.68088 1.04851 2.4912L 0.562861 2.61012ZM 0.0276635 3.54218L 0.519307 3.63391L 0.521131 3.62275L 0.0276635 3.54218ZM 0.751757 5.21346L 0.979077 5.6588C 1.14092 5.57619 1.24521 5.41227 1.25146 5.23067C 1.25771 5.04906 1.16495 4.87837 1.00917 4.78482L 0.751757 5.21346ZM 0.216559 5.8884L -0.274148 5.79227L -0.275215 5.79808L 0.216559 5.8884ZM 0.940653 6.98116L 1.05531 6.49448C 1.04846 6.49287 1.04157 6.4914 1.03465 6.49008L 0.940653 6.98116ZM 1.9166 6.49906L 2.19792 6.08571C 2.08062 6.00588 1.93492 5.97964 1.79714 6.01354C 1.65936 6.04744 1.54247 6.13829 1.4756 6.26344L 1.9166 6.49906ZM 2.57773 6.75618L 2.45408 7.24065C 2.46098 7.24241 2.46792 7.24403 2.47489 7.24549L 2.57773 6.75618ZM 5.03335 5.37416L 5.23377 4.91609C 5.10831 4.8612 4.96582 4.86016 4.83958 4.91324C 4.71333 4.96631 4.61438 5.06884 4.56583 5.19689L 5.03335 5.37416ZM 5.72596 5.567L 5.82078 5.07607C 5.81325 5.07462 5.8057 5.07334 5.79812 5.07224L 5.72596 5.567ZM 8.77974 5.0849L 9.2622 4.95363C 9.21977 4.79768 9.10457 4.67186 8.95296 4.61587C 8.80135 4.55988 8.63203 4.58062 8.49842 4.67155L 8.77974 5.0849ZM 9.97607 6.24194L 9.87097 6.73093L 9.88319 6.73324L 9.97607 6.24194ZM 11.802 4.98848L 11.3113 4.89235L 11.3101 4.89924L 11.802 4.98848ZM 11.8335 4.47424L 11.6595 4.0055C 11.4635 4.07825 11.3335 4.26522 11.3335 4.47424L 11.8335 4.47424ZM 13.0494 3.76106C 13.1906 2.99237 12.7164 2.23791 11.9275 2.0869L 11.7395 3.06907C 11.958 3.1109 12.1136 3.32064 12.0658 3.58042L 13.0494 3.76106ZM 11.9572 2.09351C 11.7653 2.04455 11.5364 2.03308 11.3261 2.10464L 11.6483 3.05133C 11.6336 3.05634 11.6326 3.05388 11.6486 3.05388C 11.6633 3.05388 11.6847 3.05603 11.7099 3.06245L 11.9572 2.09351ZM 11.9861 2.54428C 11.9087 1.39813 11.0936 0.399591 9.91868 0.159694L 9.71863 1.13948C 10.4326 1.28526 10.9399 1.89372 10.9884 2.61169L 11.9861 2.54428ZM 9.91266 0.158502C 9.29147 0.039596 8.62656 0.155336 8.10448 0.483325L 8.63645 1.33009C 8.93292 1.14384 9.33841 1.06674 9.72465 1.14067L 9.91266 0.158502ZM 8.63164 0.480335C 8.11388 0.163191 7.52621 -0.0838827 6.86994 -0.224931L 6.65981 0.752744C 7.19987 0.868816 7.68259 1.0717 8.1093 1.33308L 8.63164 0.480335ZM 6.8649 -0.225986C 5.83202 -0.436877 4.77225 -0.338302 3.93247 0.0717211L 4.37122 0.970331C 4.97963 0.673274 5.80879 0.57901 6.66485 0.753799L 6.8649 -0.225986ZM 4.48785 0.150755C 4.12912 -0.17478 3.69354 -0.374826 3.22828 -0.453989L 3.06054 0.531842C 3.35086 0.581239 3.60789 0.702593 3.81584 0.891297L 4.48785 0.150755ZM 3.23682 -0.45246C 1.76443 -0.729356 0.378443 0.22528 0.0731653 1.70564L 1.05256 1.90761C 1.251 0.945333 2.13174 0.357249 3.052 0.530313L 3.23682 -0.45246ZM 0.0743019 1.70028C -0.00291175 2.055 -0.00589152 2.3897 0.0772111 2.72905L 1.04851 2.4912C 1.00569 2.31631 1.00271 2.13677 1.05142 1.91297L 0.0743019 1.70028ZM 0.251942 2.21855C -0.13266 2.52394 -0.383601 2.9581 -0.465804 3.46162L 0.521131 3.62275C 0.564857 3.3549 0.691702 3.14627 0.87378 3.0017L 0.251942 2.21855ZM -0.463854 3.45048C -0.627208 4.326 -0.224012 5.21072 0.494344 5.64211L 1.00917 4.78482C 0.657128 4.57341 0.430677 4.10825 0.519181 3.63389L -0.463854 3.45048ZM 0.524437 4.76813C 0.172199 4.94792 -0.174585 5.28424 -0.274114 5.79227L 0.707232 5.98453C 0.733633 5.84977 0.827599 5.73612 0.979077 5.6588L 0.524437 4.76813ZM -0.275215 5.79808C -0.416397 6.56678 0.0577318 7.32123 0.846651 7.47225L 1.03465 6.49008C 0.81614 6.44825 0.660621 6.23851 0.708334 5.97872L -0.275215 5.79808ZM 0.825996 7.46784C 1.50088 7.62683 2.08526 7.24441 2.3576 6.73468L 1.4756 6.26344C 1.37016 6.46079 1.19896 6.52833 1.05531 6.49448L 0.825996 7.46784ZM 1.63528 6.91241C 1.90489 7.0959 2.20475 7.17701 2.45408 7.24065L 2.70138 6.27171C 2.447 6.20679 2.3061 6.15934 2.19792 6.08571L 1.63528 6.91241ZM 2.47489 7.24549C 3.80457 7.52497 5.04255 6.76017 5.50087 5.55143L 4.56583 5.19689C 4.26858 5.98083 3.49169 6.43735 2.68057 6.26687L 2.47489 7.24549ZM 4.83293 5.83224C 5.10176 5.94986 5.39817 6.02449 5.6538 6.06177L 5.79812 5.07224C 5.61299 5.04524 5.40569 4.99131 5.23377 4.91609L 4.83293 5.83224ZM 5.63114 6.05793C 6.89419 6.30188 8.17079 6.10416 9.06106 5.49825L 8.49842 4.67155C 7.87754 5.09412 6.88741 5.28209 5.82078 5.07607L 5.63114 6.05793ZM 8.29728 5.21618C 8.50009 5.96153 9.07678 6.56008 9.871 6.73078L 10.0811 5.7531C 9.67902 5.66668 9.37422 5.36531 9.2622 4.95363L 8.29728 5.21618ZM 9.88319 6.73324C 11.0016 6.94468 12.0863 6.22297 12.294 5.07772L 11.3101 4.89924C 11.203 5.48955 10.6506 5.8606 10.0689 5.75064L 9.88319 6.73324ZM 12.2927 5.08461C 12.3353 4.86716 12.3335 4.62282 12.3335 4.47424L 11.3335 4.47424C 11.3335 4.64707 11.3317 4.7884 11.3114 4.89236L 12.2927 5.08461ZM 12.0075 4.94299C 12.4675 4.77224 12.9508 4.36547 13.0511 3.75131L 12.0641 3.59018C 12.0385 3.74738 11.8922 3.91913 11.6595 4.0055L 12.0075 4.94299Z"/>
    </defs>
</svg>
